<?xml version="1.0" encoding="UTF-8"?><svg version="1.1" xmlns="http://www.w3.org/2000/svg" xmlns:xlink="http://www.w3.org/1999/xlink" x="0px" y="0px" viewBox="0 0 1600 1200" style="enable-background:new 0 0 1600 1200;" xml:space="preserve" width="1600px" height="1200px">

<g id="background">
	<g id="XMLID_2280_">
		<g id="XMLID_2321_">
			<path id="XMLID_2325_" d="M560.5,1012.3c78.5,0,157,0,235.5,0c78.8,0,157.6,0,236.5,0c44.2,0,88.5,0,132.7,0
				c1.9,0,1.9-3,0-3c-78.5,0-157,0-235.5,0c-78.8,0-157.6,0-236.5,0c-44.2,0-88.5,0-132.7,0C558.6,1009.3,558.6,1012.3,560.5,1012.3
				L560.5,1012.3z" style="fill:#E8E8E8;"/>
		</g>
	</g>
	<g id="XMLID_2288_">
		<g id="XMLID_2329_">
			<path id="XMLID_2333_" d="M1171.3,937.3c5.1,30.8,10.2,61.6,15.4,92.4c0.3,1.9,3.2,1.1,2.9-0.8
				c-5.1-30.8-10.2-61.6-15.4-92.4C1173.9,934.6,1171,935.4,1171.3,937.3L1171.3,937.3z" style="fill:#E8E8E8;"/>
		</g>
	</g>
	<g id="XMLID_2290_">
		<g id="XMLID_2337_">
			<path id="XMLID_2342_" d="M1173.1,938c40.4-2.5,80.9-1.4,121,3.2c1.9,0.2,1.9-2.8,0-3c-40.2-4.6-80.7-5.7-121-3.2
				C1171.2,935.1,1171.1,938.1,1173.1,938L1173.1,938z" style="fill:#E8E8E8;"/>
		</g>
	</g>
	<g id="XMLID_2298_">
		<g id="XMLID_2345_">
			<path id="XMLID_2350_" d="M1187.9,1032c29.8,9.3,61.4,10.7,91.9,4.1c1.9-0.4,1.1-3.3-0.8-2.9
				c-30,6.5-61.1,5.1-90.4-4.1C1186.8,1028.5,1186,1031.4,1187.9,1032L1187.9,1032z" style="fill:#E8E8E8;"/>
		</g>
	</g>
	<g id="XMLID_2300_">
		<g id="XMLID_2353_">
			<path id="XMLID_2358_" d="M1293.2,940.4c-2.5,31.3-6.9,62.4-13.4,93.1c-0.4,1.9,2.5,2.7,2.9,0.8
				c6.5-31,11.1-62.4,13.5-93.9C1296.3,938.4,1293.3,938.4,1293.2,940.4L1293.2,940.4z" style="fill:#E8E8E8;"/>
		</g>
	</g>
	<g id="XMLID_2307_">
		<g id="XMLID_2361_">
			<path id="XMLID_2366_" d="M1178.4,978.8c14.1,21.5,30.6,41.3,49.1,59.2c1.4,1.3,3.5-0.8,2.1-2.1
				c-18.4-17.7-34.7-37.3-48.7-58.6C1179.9,975.7,1177.3,977.2,1178.4,978.8L1178.4,978.8z" style="fill:#E8E8E8;"/>
		</g>
	</g>
	<g id="XMLID_2308_">
		<g id="XMLID_2370_">
			<path id="XMLID_2374_" d="M1190.9,937.7c24.2,35.1,52.3,67.4,84,96c1.4,1.3,3.6-0.8,2.1-2.1
				c-31.4-28.5-59.4-60.5-83.5-95.4C1192.4,934.6,1189.8,936.1,1190.9,937.7L1190.9,937.7z" style="fill:#E8E8E8;"/>
		</g>
	</g>
	<g id="XMLID_2316_">
		<g id="XMLID_2378_">
			<path id="XMLID_2382_" d="M1236.7,939c14.3,18.3,29.6,35.7,45.9,52.2c1.4,1.4,3.5-0.7,2.1-2.1
				c-16.3-16.5-31.6-34-45.9-52.2C1237.6,935.4,1235.5,937.5,1236.7,939L1236.7,939z" style="fill:#E8E8E8;"/>
		</g>
	</g>
	<g id="XMLID_2318_">
		<g id="XMLID_2386_">
			<path id="XMLID_2391_" d="M1205.9,934c-6.5-7.4-11.8-15.7-15.6-24.7c-1.8-4.3-3.3-8.7-4.4-13.2
				c-0.5-2.2-1-4.3-1.3-6.5c-0.2-1-0.9-3.1-0.5-4c-0.2-1.3,0.7-1.7,2.7-1.3c2.1-1.3,3.6-0.9,4.4,1.4c0.9,1.2,3.4,0.6,2.7-1.2
				c-2.9-7.4-5.2-14.9-7-22.6c-0.8-3.6-1.5-7.1-2.1-10.7c-0.4-2.3-0.6-4.5-0.9-6.8c-0.1-1.2-0.2-2.4-0.3-3.6
				c-0.4-1.9,0.5-3.3,2.7-4.3c0.8,0.9,2.7,0.3,2.6-1.1c-1.4-14-2.7-28-1.5-42c0.6-7.3,1.9-14.6,4.3-21.5c0.7-2,1.4-4.1,2.4-6.1
				c0.3-0.8,0.7-1.5,1.2-2.2c2.1,0,4.1,0,6.2,0c3,1.2,5.3,8.1,6.2,10.6c4.9,13.8,6.9,28.5,9.1,42.9c2.4,15.8,4.8,31.6,7.2,47.4
				c0.2,1.6,2.4,1.2,2.9,0c0.9-1,1.8-2.1,2.7-3.1c-0.7-0.2-1.4-0.4-2.1-0.5c5.9,10.8,7.1,23.1,7.9,35.2c0.8,12.9,1.1,25.9,1,38.8
				c0,1.9,3,1.9,3,0c0.1-14.2-0.2-28.3-1.3-42.5c-0.8-11.4-2.4-22.9-8-33.1c-0.4-0.7-1.4-1-2.1-0.5c-2.1,1.3-3.2,2.6-4.1,4.9
				c1,0,1.9,0,2.9,0c-2.9-19.1-5.6-38.3-8.7-57.4c-1.4-9-3.1-18.1-5.7-26.9c-1.9-6.5-4-14-9.4-18.4c-11.8-9.6-16.3,16.7-17.4,23.5
				c-2.8,16.9-1.2,34.1,0.4,51c0.9-0.4,1.7-0.7,2.6-1.1c-1.8-2-4.8-1.9-6.6,0.2c-2.8,3.3-1,9.8-0.5,13.5c1.7,12.8,4.9,25.3,9.6,37.4
				c0.9-0.4,1.8-0.8,2.7-1.2c-2.4-3.3-7.3-8-11.2-3.7c-3.3,3.7-0.7,11.5,0.2,15.6c3.5,14.9,10.8,28.7,21,40.1
				C1205.1,937.6,1207.2,935.4,1205.9,934L1205.9,934z" style="fill:#E8E8E8;"/>
		</g>
	</g>
	<g id="XMLID_2326_">
		<g id="XMLID_2394_">
			<path id="XMLID_2399_" d="M1223.7,840.4c-0.3-5.4,0.2-36.1,10.5-33.4c1,0.3,1.8-0.5,1.9-1.4
				c2.2-17.6,9.4-33,16.5-48.9c1.6-3.5,3.2-7.1,4.8-10.6c2.1-4.6,5.2-12.9,11.3-6.5c5.6,5.7,6.3,15.1,6.4,22.6
				c0.2,16.6-0.6,33.3-1,50c-0.4,17.8-0.8,35.7-1.2,53.5c0,1.6,2.7,2.1,2.9,0.4c0.9,0.2,1.8,0.5,2.7,0.7c0.2,0.9,0.2,1.8,0.2,2.7
				c0,1.2-0.1,2.4-0.1,3.6c-0.1,3-0.2,5.9-0.4,8.9c-0.3,6.3-0.5,12.6-0.8,18.8c-0.5,12.1-0.9,24.3-3.4,36.2
				c-0.4,1.9,2.5,2.7,2.9,0.8c3.7-17.6,3.5-35.9,4.2-53.8c0.2-4.6,0.5-9.3,0.6-13.9c0-2.3,0-4.8-1.6-6.5c-2.2-2.5-6.6-1.7-7.2,1.7
				c1,0.1,2,0.3,2.9,0.4c0.7-32.9,1.7-65.8,2.2-98.7c0.2-9.9,0.1-27.2-10.8-32.1c-4-1.8-7.5,0.1-9.7,3.7c-3.9,6.4-6.5,14.2-9.6,21.1
				c-6.8,15-12.9,29.5-15,46c0.6-0.5,1.3-1,1.9-1.4c-6.1-1.6-9.4,4.5-11,9.4c-2.9,8.6-3.8,17.8-3.3,26.8
				C1220.8,842.4,1223.8,842.4,1223.7,840.4L1223.7,840.4z" style="fill:#E8E8E8;"/>
		</g>
	</g>
	<g id="XMLID_2335_">
		<g id="XMLID_2402_">
			<path id="XMLID_2407_" d="M1288.6,1009.3c18.9,0,37.7,0,56.6,0c1.9,0,1.9-3,0-3c-18.9,0-37.7,0-56.6,0
				C1286.7,1006.3,1286.7,1009.3,1288.6,1009.3L1288.6,1009.3z" style="fill:#E8E8E8;"/>
		</g>
	</g>
	<g id="XMLID_2343_">
		<g id="XMLID_2410_">
			<path id="XMLID_2415_" d="M272.5,615.9c0,108.6,0,217.2,0,325.7c0,30.6,0,61.3,0,91.9c0,1.9,3,1.9,3,0
				c0-108.6,0-217.2,0-325.7c0-30.6,0-61.3,0-91.9C275.5,614,272.5,614,272.5,615.9L272.5,615.9z" style="fill:#E8E8E8;"/>
		</g>
	</g>
	<g id="XMLID_2351_">
		<g id="XMLID_2419_">
			<path id="XMLID_2423_" d="M274.9,1034.2c63.4,0,126.7,0,190.1,0c1.9,0,1.9-3,0-3c-63.4,0-126.7,0-190.1,0
				C272.9,1031.2,272.9,1034.2,274.9,1034.2L274.9,1034.2z" style="fill:#E8E8E8;"/>
		</g>
	</g>
	<g id="XMLID_2359_">
		<g id="XMLID_2427_">
			<path id="XMLID_2431_" d="M465.6,1032.7c0-109.9,0-219.8,0-329.7c0-31.3,0-62.6,0-93.9c0-1.9-3-1.9-3,0
				c0,4.4,0,8.8,0,13.3c0,1.9,3,1.9,3,0c0-4.4,0-8.8,0-13.3c-1,0-2,0-3,0c0,109.9,0,219.8,0,329.7c0,31.3,0,62.6,0,93.9
				C462.6,1034.6,465.6,1034.6,465.6,1032.7L465.6,1032.7z" style="fill:#E8E8E8;"/>
		</g>
	</g>
	<g id="XMLID_2367_">
		<g id="XMLID_2435_">
			<path id="XMLID_2440_" d="M464.1,606.2c-61.8,0-123.7,0-185.5,0c-1.9,0-1.9,3,0,3c61.8,0,123.7,0,185.5,0
				C466,609.2,466,606.2,464.1,606.2L464.1,606.2z" style="fill:#E8E8E8;"/>
		</g>
	</g>
	<g id="XMLID_2375_">
		<g id="XMLID_2443_">
			<path id="XMLID_2448_" d="M295.6,687.5c0-16.4,0-32.8,0-49.3c0-1.9-3-1.9-3,0c0,16.4,0,32.8,0,49.3
				C292.6,689.4,295.6,689.4,295.6,687.5L295.6,687.5z" style="fill:#E8E8E8;"/>
		</g>
	</g>
	<g id="XMLID_2384_">
		<g id="XMLID_2451_">
			<path id="XMLID_2456_" d="M294.1,639c47.8,0,95.6,0,143.5,0c1.9,0,1.9-3,0-3c-47.8,0-95.6,0-143.5,0
				C292.2,636,292.2,639,294.1,639L294.1,639z" style="fill:#E8E8E8;"/>
		</g>
	</g>
	<g id="XMLID_2392_">
		<g id="XMLID_2459_">
			<path id="XMLID_2464_" d="M437.5,639.7c0,13.8,0,27.5,0,41.3c0,1.9,3,1.9,3,0c0-13.8,0-27.5,0-41.3
				C440.5,637.8,437.5,637.8,437.5,639.7L437.5,639.7z" style="fill:#E8E8E8;"/>
		</g>
	</g>
	<g id="XMLID_2400_">
		<g id="XMLID_2468_">
			<path id="XMLID_2472_" d="M295.6,689c47.3,0,94.7,0,142,0c1.9,0,1.9-3,0-3c-47.3,0-94.7,0-142,0
				C293.6,686,293.6,689,295.6,689L295.6,689z" style="fill:#E8E8E8;"/>
		</g>
	</g>
	<g id="XMLID_2408_">
		<g id="XMLID_2476_">
			<path id="XMLID_2480_" d="M358.4,672.2c-3.3-1.5-5.5-4.9-4.8-8.6c0.9-4.4,6.1-7.6,10.2-5.3c3.7,2.1,3.8,7.6,1.7,11
				c-2,3.4-7.1,4.5-9.4,0.8c-1-1.6-3.6-0.1-2.6,1.5c2.9,4.7,9.5,5,13.2,1.1c3.9-4.1,4.5-12.4-0.1-16.2c-4.7-3.9-12-1.5-14.8,3.5
				c-3.1,5.4-0.4,12.2,5.1,14.8C358.6,675.7,360.2,673.1,358.4,672.2L358.4,672.2z" style="fill:#E8E8E8;"/>
		</g>
	</g>
	<g id="XMLID_2449_">
		<g id="XMLID_2517_">
			<path id="XMLID_2521_" d="M294.6,790.5c0-16.4,0-32.8,0-49.3c0-1.9-3-1.9-3,0c0,16.4,0,32.8,0,49.3
				C291.6,792.4,294.6,792.4,294.6,790.5L294.6,790.5z" style="fill:#E8E8E8;"/>
		</g>
	</g>
	<g id="XMLID_2441_">
		<g id="XMLID_2510_">
			<path id="XMLID_2514_" d="M293.1,742c47.8,0,95.6,0,143.5,0c1.9,0,1.9-3,0-3c-47.8,0-95.6,0-143.5,0
				C291.2,739,291.2,742,293.1,742L293.1,742z" style="fill:#E8E8E8;"/>
		</g>
	</g>
	<g id="XMLID_2433_">
		<g id="XMLID_2503_">
			<path id="XMLID_2507_" d="M436.5,742.7c0,13.8,0,27.5,0,41.3c0,1.9,3,1.9,3,0c0-13.8,0-27.5,0-41.3
				C439.5,740.8,436.5,740.8,436.5,742.7L436.5,742.7z" style="fill:#E8E8E8;"/>
		</g>
	</g>
	<g id="XMLID_2424_">
		<g id="XMLID_2496_">
			<path id="XMLID_2500_" d="M294.6,792c47.3,0,94.7,0,142,0c1.9,0,1.9-3,0-3c-47.3,0-94.7,0-142,0
				C292.6,789,292.6,792,294.6,792L294.6,792z" style="fill:#E8E8E8;"/>
		</g>
	</g>
	<g id="XMLID_2416_">
		<g id="XMLID_2489_">
			<path id="XMLID_2493_" d="M357.4,775.2c-3.3-1.5-5.5-4.9-4.8-8.6c0.9-4.4,6.1-7.6,10.2-5.3c3.7,2.1,3.8,7.6,1.7,11
				c-2,3.4-7.1,4.5-9.4,0.8c-1-1.6-3.6-0.1-2.6,1.5c2.9,4.7,9.5,5,13.2,1.1c3.9-4.1,4.5-12.4-0.1-16.2c-4.7-3.9-12-1.5-14.8,3.5
				c-3.1,5.4-0.4,12.2,5.1,14.8C357.6,778.7,359.2,776.1,357.4,775.2L357.4,775.2z" style="fill:#E8E8E8;"/>
		</g>
	</g>
	<g id="XMLID_2475_">
		<g id="XMLID_2557_">
			<path id="XMLID_2562_" d="M296.5,899.9c0-16.4,0-32.8,0-49.3c0-1.9-3-1.9-3,0c0,16.4,0,32.8,0,49.3
				C293.5,901.8,296.5,901.8,296.5,899.9L296.5,899.9z" style="fill:#E8E8E8;"/>
		</g>
	</g>
	<g id="XMLID_2473_">
		<g id="XMLID_2550_">
			<path id="XMLID_2555_" d="M295,851.4c47.8,0,95.6,0,143.5,0c1.9,0,1.9-3,0-3c-47.8,0-95.6,0-143.5,0
				C293.1,848.4,293.1,851.4,295,851.4L295,851.4z" style="fill:#E8E8E8;"/>
		</g>
	</g>
	<g id="XMLID_2466_">
		<g id="XMLID_2543_">
			<path id="XMLID_2548_" d="M438.4,852.1c0,13.8,0,27.5,0,41.3c0,1.9,3,1.9,3,0c0-13.8,0-27.5,0-41.3
				C441.4,850.1,438.4,850.1,438.4,852.1L438.4,852.1z" style="fill:#E8E8E8;"/>
		</g>
	</g>
	<g id="XMLID_2465_">
		<g id="XMLID_2536_">
			<path id="XMLID_2541_" d="M296.4,901.4c47.3,0,94.7,0,142,0c1.9,0,1.9-3,0-3c-47.3,0-94.7,0-142,0
				C294.5,898.4,294.5,901.4,296.4,901.4L296.4,901.4z" style="fill:#E8E8E8;"/>
		</g>
	</g>
	<g id="XMLID_2457_">
		<g id="XMLID_2529_">
			<path id="XMLID_2534_" d="M359.3,884.6c-3.3-1.5-5.5-4.9-4.8-8.6c0.9-4.4,6.1-7.6,10.2-5.3c3.7,2.1,3.8,7.6,1.7,11
				c-2,3.4-7.1,4.5-9.4,0.8c-1-1.6-3.6-0.1-2.6,1.5c2.9,4.7,9.5,5,13.2,1.1c3.9-4.1,4.5-12.4-0.1-16.2c-4.7-3.9-12-1.5-14.8,3.5
				c-3.1,5.4-0.4,12.2,5.1,14.8C359.5,888,361,885.5,359.3,884.6L359.3,884.6z" style="fill:#E8E8E8;"/>
		</g>
	</g>
	<g id="XMLID_2482_">
		<g id="XMLID_2566_">
			<path id="XMLID_2570_" d="M275.7,618.5c-0.3-3.5-0.2-7,0.4-10.4c-0.5,0.4-1,0.7-1.4,1.1c3.1,0,6.1,0,9.2-0.1
				c1.9,0,1.9-3,0-3c-3.1,0-6.1,0-9.2,0.1c-0.6,0-1.3,0.5-1.4,1.1c-0.6,3.7-0.8,7.5-0.5,11.2C272.9,620.4,275.9,620.4,275.7,618.5
				L275.7,618.5z" style="fill:#E8E8E8;"/>
		</g>
	</g>
	<g id="XMLID_2494_">
		<g id="XMLID_2574_">
			<path id="XMLID_2578_" d="M295.7,607.1c0-4.2,0-8.4,0-12.6c0-1.9-3-1.9-3,0c0,4.2,0,8.4,0,12.6
				C292.7,609,295.7,609,295.7,607.1L295.7,607.1z" style="fill:#E8E8E8;"/>
		</g>
	</g>
	<g id="XMLID_2501_">
		<g id="XMLID_2582_">
			<path id="XMLID_2587_" d="M294.7,595.4c35.3,0,70.6,0,105.9,0c1.9,0,1.9-3,0-3c-35.3,0-70.6,0-105.9,0
				C292.8,592.4,292.8,595.4,294.7,595.4L294.7,595.4z" style="fill:#E8E8E8;"/>
		</g>
	</g>
	<g id="XMLID_2508_">
		<g id="XMLID_2590_">
			<path id="XMLID_2595_" d="M399.1,595c0,4.2,0,8.4,0,12.6c0,1.9,3,1.9,3,0c0-4.2,0-8.4,0-12.6
				C402.1,593.1,399.1,593.1,399.1,595L399.1,595z" style="fill:#E8E8E8;"/>
		</g>
	</g>
	<g id="XMLID_2515_">
		<g id="XMLID_2598_">
			<path id="XMLID_2603_" d="M315.7,594.5c0-4.4,0-8.8,0-13.2c0-1.9-3-1.9-3,0c0,4.4,0,8.8,0,13.2
				C312.7,596.4,315.7,596.4,315.7,594.5L315.7,594.5z" style="fill:#E8E8E8;"/>
		</g>
	</g>
	<g id="XMLID_2522_">
		<g id="XMLID_2606_">
			<path id="XMLID_2611_" d="M315.9,581.7c32.2,0,64.5,0,96.7,0c1.9,0,1.9-3,0-3c-32.2,0-64.5,0-96.7,0
				C314,578.7,314,581.7,315.9,581.7L315.9,581.7z" style="fill:#E8E8E8;"/>
		</g>
	</g>
	<g id="XMLID_2535_">
		<g id="XMLID_2615_">
			<path id="XMLID_2619_" d="M397.6,595.3c4.6,0,9.2,0,13.9,0c1.9,0,1.9-3,0-3c-4.6,0-9.2,0-13.9,0
				C395.7,592.3,395.7,595.3,397.6,595.3L397.6,595.3z" style="fill:#E8E8E8;"/>
		</g>
	</g>
	<g id="XMLID_2549_">
		<g id="XMLID_2623_">
			<path id="XMLID_2627_" d="M411.1,581c0,3.8,0,7.5,0,11.3c0,1.9,3,1.9,3,0c0-3.8,0-7.5,0-11.3
				C414.1,579.1,411.1,579.1,411.1,581L411.1,581z" style="fill:#E8E8E8;"/>
		</g>
	</g>
	<g id="XMLID_2563_">
		<g id="XMLID_2631_">
			<path id="XMLID_2636_" d="M291.8,569.4c0,3.8,0,7.5,0,11.3c0,1.9,3,1.9,3,0c0-3.8,0-7.5,0-11.3
				C294.8,567.4,291.8,567.4,291.8,569.4L291.8,569.4z" style="fill:#E8E8E8;"/>
		</g>
	</g>
	<g id="XMLID_2571_">
		<g id="XMLID_2639_">
			<path id="XMLID_2644_" d="M294.4,570.1c29.7,0,59.3,0,89,0c1.9,0,1.9-3,0-3c-29.7,0-59.3,0-89,0
				C292.5,567.1,292.5,570.1,294.4,570.1L294.4,570.1z" style="fill:#E8E8E8;"/>
		</g>
	</g>
	<g id="XMLID_2580_">
		<g id="XMLID_2647_">
			<path id="XMLID_2652_" d="M383,568.6c0,2.8,0,5.6,0,8.4c0,1.9,3,1.9,3,0c0-2.8,0-5.6,0-8.4
				C386,566.7,383,566.7,383,568.6L383,568.6z" style="fill:#E8E8E8;"/>
		</g>
	</g>
	<g id="XMLID_2588_">
		<g id="XMLID_2655_">
			<path id="XMLID_2660_" d="M294,582.2c7.3,0,14.6,0,21.9,0c1.9,0,1.9-3,0-3c-7.3,0-14.6,0-21.9,0
				C292.1,579.2,292.1,582.2,294,582.2L294,582.2z" style="fill:#E8E8E8;"/>
		</g>
	</g>
	<g id="XMLID_2596_">
		<g id="XMLID_2664_">
			<path id="XMLID_2668_" d="M292.6,1022.4c43,0,86.1,0,129.1,0c1.9,0,1.9-3,0-3c-43,0-86.1,0-129.1,0
				C290.7,1019.4,290.7,1022.4,292.6,1022.4L292.6,1022.4z" style="fill:#E8E8E8;"/>
		</g>
	</g>
	<g id="XMLID_2604_">
		<g id="XMLID_2672_">
			<path id="XMLID_2676_" d="M794.3,768.4c0-16.8,0-33.5,0-50.3c0-1.9-3-1.9-3,0c0,16.8,0,33.5,0,50.3
				C791.3,770.3,794.3,770.3,794.3,768.4L794.3,768.4z" style="fill:#E8E8E8;"/>
		</g>
	</g>
	<g id="XMLID_2612_">
		<g id="XMLID_2680_">
			<path id="XMLID_2685_" d="M746.5,769.9c31.7,0,63.3,0,95,0c1.9,0,1.9-3,0-3c-31.7,0-63.3,0-95,0
				C744.5,766.9,744.5,769.9,746.5,769.9L746.5,769.9z" style="fill:#E8E8E8;"/>
		</g>
	</g>
	<g id="XMLID_2620_">
		<g id="XMLID_2688_">
			<path id="XMLID_2693_" d="M813.6,768.4c0,10.4,0,20.8,0,31.1c0,1.9,3,1.9,3,0c0-10.4,0-20.8,0-31.1
				C816.6,766.5,813.6,766.5,813.6,768.4L813.6,768.4z" style="fill:#E8E8E8;"/>
		</g>
	</g>
	<g id="XMLID_2629_">
		<g id="XMLID_2696_">
			<path id="XMLID_2701_" d="M780.8,805c28.5,0,56.9,0,85.4,0c1.9,0,1.9-3,0-3c-28.5,0-56.9,0-85.4,0
				C778.9,802,778.9,805,780.8,805L780.8,805z" style="fill:#E8E8E8;"/>
		</g>
	</g>
	<g id="XMLID_2637_">
		<g id="XMLID_2704_">
			<path id="XMLID_2709_" d="M369.3,301.9c0-26.1,0-52.1,0-78.2c0-1.9-3-1.9-3,0c0,26.1,0,52.1,0,78.2
				C366.3,303.8,369.3,303.8,369.3,301.9L369.3,301.9z" style="fill:#E8E8E8;"/>
		</g>
	</g>
	<g id="XMLID_2645_">
		<g id="XMLID_2713_">
			<path id="XMLID_2717_" d="M367.8,226.7c41.5,0,82.9,0,124.4,0c1.9,0,1.9-3,0-3c-41.5,0-82.9,0-124.4,0
				C365.9,223.7,365.9,226.7,367.8,226.7L367.8,226.7z" style="fill:#E8E8E8;"/>
		</g>
	</g>
	<g id="XMLID_2653_">
		<g id="XMLID_2721_">
			<path id="XMLID_2725_" d="M490.7,225.9c0,23.3,0,46.7,0,70c0,1.9,3,1.9,3,0c0-23.3,0-46.7,0-70
				C493.7,224,490.7,224,490.7,225.9L490.7,225.9z" style="fill:#E8E8E8;"/>
		</g>
	</g>
	<g id="XMLID_2661_">
		<g id="XMLID_2729_">
			<path id="XMLID_2734_" d="M367.1,303.4c41.2,0,82.4,0,123.6,0c1.9,0,1.9-3,0-3c-41.2,0-82.4,0-123.6,0
				C365.2,300.4,365.1,303.4,367.1,303.4L367.1,303.4z" style="fill:#E8E8E8;"/>
		</g>
	</g>
	<g id="XMLID_2669_">
		<g id="XMLID_2737_">
			<path id="XMLID_2742_" d="M376,295.2c0-21.1,0-42.2,0-63.3c0-1.9-3-1.9-3,0c0,21.1,0,42.2,0,63.3
				C373,297.1,376,297.1,376,295.2L376,295.2z" style="fill:#E8E8E8;"/>
		</g>
	</g>
	<g id="XMLID_2678_">
		<g id="XMLID_2745_">
			<path id="XMLID_2750_" d="M374.5,233.4c36.2,0,72.5,0,108.7,0c1.9,0,1.9-3,0-3c-36.2,0-72.5,0-108.7,0
				C372.6,230.4,372.6,233.4,374.5,233.4L374.5,233.4z" style="fill:#E8E8E8;"/>
		</g>
	</g>
	<g id="XMLID_2686_">
		<g id="XMLID_2753_">
			<path id="XMLID_2758_" d="M482.5,234.1c0,18.4,0,36.7,0,55.1c0,1.9,3,1.9,3,0c0-18.4,0-36.7,0-55.1
				C485.5,232.2,482.5,232.2,482.5,234.1L482.5,234.1z" style="fill:#E8E8E8;"/>
		</g>
	</g>
	<g id="XMLID_2694_">
		<g id="XMLID_2762_">
			<path id="XMLID_2766_" d="M376.8,297.4c35.3,0,70.5,0,105.8,0c1.9,0,1.9-3,0-3c-35.3,0-70.5,0-105.8,0
				C374.8,294.4,374.8,297.4,376.8,297.4L376.8,297.4z" style="fill:#E8E8E8;"/>
		</g>
	</g>
	<g id="XMLID_2702_">
		<g id="XMLID_2770_">
			<path id="XMLID_2774_" d="M378.3,294.5c20.1-17.3,39.8-35.1,59.1-53.3c1.4-1.3-0.7-3.4-2.1-2.1
				c-19.3,18.3-39,36-59.1,53.3C374.7,293.6,376.9,295.7,378.3,294.5L378.3,294.5z" style="fill:#E8E8E8;"/>
		</g>
	</g>
	<g id="XMLID_2710_">
		<g id="XMLID_2777_">
			<path id="XMLID_2781_" d="M411.2,294.6c16-18.7,33.1-36.4,51.2-53.1c1.4-1.3-0.7-3.4-2.1-2.1
				c-18.1,16.7-35.2,34.4-51.2,53.1C407.8,294,409.9,296.1,411.2,294.6L411.2,294.6z" style="fill:#E8E8E8;"/>
		</g>
	</g>
	<g id="XMLID_2718_">
		<g id="XMLID_2784_">
			<path id="XMLID_2788_" d="M419.8,225c0.3-1.9,0.9-3.7,2-5.3c1-1.5,3.2-4.1,5.2-4c3,0.1,2.4,6.4,3.2,8.4
				c0.7,1.8,3.6,1,2.9-0.8c-1.4-3.6-0.2-10.7-6.1-10.6c-5.5,0.1-9.3,6.8-10.1,11.5C416.6,226.1,419.5,226.9,419.8,225L419.8,225z" style="fill:#E8E8E8;"/>
		</g>
	</g>
	<g id="XMLID_2727_">
		<g id="XMLID_2791_">
			<path id="XMLID_2795_" d="M1161.5,559.2c0-5.5,0-11,0-16.4c0-1.9-3-1.9-3,0c0,5.5,0,11,0,16.4
				C1158.5,561.1,1161.5,561.1,1161.5,559.2L1161.5,559.2z" style="fill:#E8E8E8;"/>
		</g>
	</g>
	<g id="XMLID_2735_">
		<g id="XMLID_2798_">
			<path id="XMLID_2802_" d="M1160,544.3c70,0,140,0,210.1,0c1.9,0,1.9-3,0-3c-70,0-140,0-210.1,0
				C1158.1,541.3,1158.1,544.3,1160,544.3L1160,544.3z" style="fill:#E8E8E8;"/>
		</g>
	</g>
	<g id="XMLID_2743_">
		<g id="XMLID_2805_">
			<path id="XMLID_2809_" d="M1160,560c70,0,140,0,210.1,0c1.9,0,1.9-3,0-3c-70,0-140,0-210.1,0
				C1158.1,557,1158.1,560,1160,560L1160,560z" style="fill:#E8E8E8;"/>
		</g>
	</g>
	<g id="XMLID_2751_">
		<g id="XMLID_2812_">
			<path id="XMLID_2816_" d="M1367.9,542.8c0,5.2,0,10.5,0,15.7c0,1.9,3,1.9,3,0c0-5.2,0-10.5,0-15.7
				C1370.9,540.8,1367.9,540.8,1367.9,542.8L1367.9,542.8z" style="fill:#E8E8E8;"/>
		</g>
	</g>
	<g id="XMLID_2759_">
		<g id="XMLID_2819_">
			<path id="XMLID_2823_" d="M1170.8,541.3c0-31.2,0-62.4,0-93.6c0-1.9-3-1.9-3,0c0,31.2,0,62.4,0,93.6
				C1167.8,543.3,1170.8,543.3,1170.8,541.3L1170.8,541.3z" style="fill:#E8E8E8;"/>
		</g>
	</g>
	<g id="XMLID_2767_">
		<g id="XMLID_2826_">
			<path id="XMLID_2830_" d="M1168.6,446.4c7.6,0,15.2,0,22.9,0c1.9,0,1.9-3,0-3c-7.6,0-15.2,0-22.9,0
				C1166.7,443.4,1166.7,446.4,1168.6,446.4L1168.6,446.4z" style="fill:#E8E8E8;"/>
		</g>
	</g>
	<g id="XMLID_2775_">
		<g id="XMLID_2833_">
			<path id="XMLID_2837_" d="M1190.7,437c0,34.8,0,69.5,0,104.3c0,1.9,3,1.9,3,0c0-34.8,0-69.5,0-104.3
				C1193.7,435.1,1190.7,435.1,1190.7,437L1190.7,437z" style="fill:#E8E8E8;"/>
		</g>
	</g>
	<g id="XMLID_2782_">
		<g id="XMLID_2840_">
			<path id="XMLID_2844_" d="M1192.9,437.1c7.9,0,15.7,0,23.6,0c1.9,0,1.9-3,0-3c-7.9,0-15.7,0-23.6,0
				C1191,434.1,1190.9,437.1,1192.9,437.1L1192.9,437.1z" style="fill:#E8E8E8;"/>
		</g>
	</g>
	<g id="XMLID_2789_">
		<g id="XMLID_2847_">
			<path id="XMLID_2851_" d="M1215.7,435.6c0,34.8,0,69.5,0,104.3c0,1.9,3,1.9,3,0c0-34.8,0-69.5,0-104.3
				C1218.7,433.6,1215.7,433.6,1215.7,435.6L1215.7,435.6z" style="fill:#E8E8E8;"/>
		</g>
	</g>
	<g id="XMLID_2796_">
		<g id="XMLID_2854_">
			<path id="XMLID_2858_" d="M1218.7,443.4c0-9.5,0-19.1,0-28.6c0-1.9-3-1.9-3,0c0,9.5,0,19.1,0,28.6
				C1215.7,445.4,1218.7,445.4,1218.7,443.4L1218.7,443.4z" style="fill:#E8E8E8;"/>
		</g>
	</g>
	<g id="XMLID_2803_">
		<g id="XMLID_2861_">
			<path id="XMLID_2865_" d="M1217.9,414.9c10,0,20,0,30,0c1.9,0,1.9-3,0-3c-10,0-20,0-30,0
				C1216,411.9,1216,414.9,1217.9,414.9L1217.9,414.9z" style="fill:#E8E8E8;"/>
		</g>
	</g>
	<g id="XMLID_2810_">
		<g id="XMLID_2868_">
			<path id="XMLID_2872_" d="M1246.4,414.9c0,41.9,0,83.8,0,125.8c0,1.9,3,1.9,3,0c0-41.9,0-83.8,0-125.8
				C1249.4,412.9,1246.4,412.9,1246.4,414.9L1246.4,414.9z" style="fill:#E8E8E8;"/>
		</g>
	</g>
	<g id="XMLID_2817_">
		<g id="XMLID_2875_">
			<path id="XMLID_2879_" d="M1246.4,414.9c0,22.4,0,44.8,0,67.2c0,1.9,3,1.9,3,0c0-22.4,0-44.8,0-67.2
				C1249.4,412.9,1246.4,412.9,1246.4,414.9L1246.4,414.9z" style="fill:#E8E8E8;"/>
		</g>
	</g>
	<g id="XMLID_2824_">
		<g id="XMLID_2882_">
			<path id="XMLID_2886_" d="M1258.7,540.6c0.1-3.9,0.1-7.8,0.2-11.7c-0.5,0.5-1,1-1.5,1.5c19-2.5,38.1-4,57.2-4.4
				c9.4-0.2,18.8-0.1,28.2,0.3c3.7,0.1,10.3-0.7,13.7,0.9c3.9,1.8,2.9,11.2,2.8,14.8c0,1.9,3,1.9,3,0c0-5.3,1.2-16.2-5.6-17.8
				c-4.4-1-9.4-0.7-13.9-0.9c-5.8-0.2-11.7-0.4-17.5-0.4c-22.7-0.1-45.4,1.4-67.9,4.4c-0.8,0.1-1.5,0.6-1.5,1.5
				c-0.1,3.9-0.1,7.8-0.2,11.7C1255.7,542.5,1258.7,542.5,1258.7,540.6L1258.7,540.6z" style="fill:#E8E8E8;"/>
		</g>
	</g>
	<g id="XMLID_2831_">
		<g id="XMLID_2889_">
			<path id="XMLID_2893_" d="M1277.3,527c0-2.5-0.4-5.2,0-7.7c0.5-3.7,2.2-3.7,5.7-3.9c5.3-0.3,10.5-0.6,15.8-0.8
				c10.8-0.6,21.7-1.2,32.5-1.7c10.3-0.6,20.7-1.5,31.1-1.6c3.3,0,7,0.1,9.3,2.8c3.1,3.7,0.5,7.9-3.7,9.1c-4.3,1.2-8.9,0.3-13.2,1.3
				c-1.9,0.4-1.1,3.3,0.8,2.9c6.1-1.4,24.5,0.3,20.7-11.8c-1.3-4.2-5.5-6.5-9.6-7c-7.6-1.1-15.9,0.4-23.5,0.8
				c-15.8,0.8-31.5,1.7-47.3,2.5c-3.9,0.2-7.9,0.4-11.8,0.6c-2.2,0.1-5.4-0.3-7.5,0.8c-4.1,2.1-2.2,10.4-2.2,13.9
				C1274.3,529,1277.3,529,1277.3,527L1277.3,527z" style="fill:#E8E8E8;"/>
		</g>
	</g>
	<g id="XMLID_2838_">
		<g id="XMLID_2896_">
			<path id="XMLID_2900_" d="M1108.5,164.9c0-18.8,0-37.6,0-56.5c0-1.9-3-1.9-3,0c0,18.8,0,37.6,0,56.5
				C1105.5,166.9,1108.5,166.9,1108.5,164.9L1108.5,164.9z" style="fill:#E8E8E8;"/>
		</g>
	</g>
	<g id="XMLID_2845_">
		<g id="XMLID_2903_">
			<path id="XMLID_2907_" d="M1107,110c35.4,0,70.9,0,106.3,0c1.9,0,1.9-3,0-3c-35.4,0-70.9,0-106.3,0
				C1105,107,1105,110,1107,110L1107,110z" style="fill:#E8E8E8;"/>
		</g>
	</g>
	<g id="XMLID_2852_">
		<g id="XMLID_2910_">
			<path id="XMLID_2914_" d="M1211.8,109.1c0,17.1,0,34.1,0,51.2c0,1.9,3,1.9,3,0c0-17.1,0-34.1,0-51.2
				C1214.8,107.2,1211.8,107.2,1211.8,109.1L1211.8,109.1z" style="fill:#E8E8E8;"/>
		</g>
	</g>
	<g id="XMLID_2859_">
		<g id="XMLID_2917_">
			<path id="XMLID_2921_" d="M1107.6,165.8c34.8,0,69.5,0,104.3,0c1.9,0,1.9-3,0-3c-34.8,0-69.5,0-104.3,0
				C1105.7,162.8,1105.7,165.8,1107.6,165.8L1107.6,165.8z" style="fill:#E8E8E8;"/>
		</g>
	</g>
	<g id="XMLID_2866_">
		<g id="XMLID_2924_">
			<path id="XMLID_2928_" d="M1149,109.1c-0.1-2.4,0-4.7,0.5-7c0.3-1.5,1.1-5.8,2.7-6.4c0.6,0.3,1.2,0.6,1.8,0.9
				c0.2,0.6,0.3,1.2,0.4,1.8c0.3,1.1,0.5,2.2,0.7,3.2c0.5,2.2,1,4.3,1.5,6.5c0.4,1.9,3.3,1.1,2.9-0.8c-0.9-3.8-1.5-7.8-2.7-11.5
				c-0.7-2.1-2.1-3.9-4.5-3.4c-2.6,0.5-3.9,3.2-4.7,5.4c-1.4,3.6-1.9,7.5-1.8,11.3C1146.1,111,1149.1,111,1149,109.1L1149,109.1z" style="fill:#E8E8E8;"/>
		</g>
	</g>
	<g id="XMLID_2873_">
		<g id="XMLID_2931_">
			<path id="XMLID_2935_" d="M1114.5,157c19.4-14.6,39.8-27.6,61.1-39.1c1.7-0.9,0.2-3.5-1.5-2.6
				c-21.3,11.5-41.7,24.6-61.1,39.1C1111.4,155.6,1112.9,158.2,1114.5,157L1114.5,157z" style="fill:#E8E8E8;"/>
		</g>
	</g>
	<g id="XMLID_2880_">
		<g id="XMLID_2938_">
			<path id="XMLID_2942_" d="M1140.5,156.6c16.7-13.3,34.7-24.9,53.6-34.8c1.7-0.9,0.2-3.5-1.5-2.6
				c-19.2,10.1-37.3,21.9-54.2,35.3C1136.9,155.7,1139,157.8,1140.5,156.6L1140.5,156.6z" style="fill:#E8E8E8;"/>
		</g>
	</g>
	<g id="XMLID_2887_">
		<g id="XMLID_2945_">
			<path id="XMLID_2949_" d="M1182.9,257.3c0-10.4,0-20.8,0-31.2c0-1.9-3-1.9-3,0c0,10.4,0,20.8,0,31.2
				C1179.9,259.2,1182.9,259.2,1182.9,257.3L1182.9,257.3z" style="fill:#E8E8E8;"/>
		</g>
	</g>
	<g id="XMLID_2894_">
		<g id="XMLID_2952_">
			<path id="XMLID_2956_" d="M1182,226.9c19.9,0,39.9,0,59.8,0c1.9,0,1.9-3,0-3c-19.9,0-39.9,0-59.8,0
				C1180.1,223.9,1180.1,226.9,1182,226.9L1182,226.9z" style="fill:#E8E8E8;"/>
		</g>
	</g>
	<g id="XMLID_2901_">
		<g id="XMLID_2959_">
			<path id="XMLID_2963_" d="M1182,258.8c20.8,0,41.6,0,62.4,0c1.9,0,1.9-3,0-3c-20.8,0-41.6,0-62.4,0
				C1180.1,255.8,1180.1,258.8,1182,258.8L1182,258.8z" style="fill:#E8E8E8;"/>
		</g>
	</g>
	<g id="XMLID_2908_">
		<g id="XMLID_2966_">
			<path id="XMLID_2970_" d="M1241.7,226.7c0,10.9,0,21.7,0,32.6c0,1.9,3,1.9,3,0c0-10.9,0-21.7,0-32.6
				C1244.7,224.8,1241.7,224.8,1241.7,226.7L1241.7,226.7z" style="fill:#E8E8E8;"/>
		</g>
	</g>
	<g id="XMLID_2915_">
		<g id="XMLID_2973_">
			<path id="XMLID_2977_" d="M1206.8,224.7c-0.1-1.3,0.5-10.3,2.7-9.2c0.6,0.3,1,3.8,1.1,4.5c0.4,2,0.5,4,0.4,6
				c0,1.9,3,1.9,3,0c0-3.2-0.3-6.4-1.1-9.5c-0.5-1.8-1.2-4.6-3.6-4.7c-2.3-0.1-3.5,2.7-4.2,4.4c-1.1,2.7-1.5,5.6-1.3,8.5
				C1204,226.6,1207,226.6,1206.8,224.7L1206.8,224.7z" style="fill:#E8E8E8;"/>
		</g>
	</g>
	<g id="XMLID_2922_">
		<g id="XMLID_2980_">
			<path id="XMLID_2984_" d="M1187,254.9c10.5-6.5,20.8-13.3,30.8-20.5c1.5-1.1,0.1-3.7-1.5-2.6
				c-10,7.2-20.3,14.1-30.8,20.5C1183.8,253.3,1185.3,255.9,1187,254.9L1187,254.9z" style="fill:#E8E8E8;"/>
		</g>
	</g>
	<g id="XMLID_2929_">
		<g id="XMLID_2987_">
			<path id="XMLID_2991_" d="M1203.8,255.8c8.8-7,17.9-13.4,27.4-19.4c1.6-1,0.1-3.6-1.5-2.6c-9.7,6.1-19,12.7-28,19.9
				C1200.2,254.9,1202.3,257,1203.8,255.8L1203.8,255.8z" style="fill:#E8E8E8;"/>
		</g>
	</g>
	<g id="XMLID_2936_">
		<g id="XMLID_2994_">
			<path id="XMLID_2998_" d="M313.5,369.2c0,14.3,0,28.6,0,42.9c0,1.9,3,1.9,3,0c0-14.3,0-28.6,0-42.9
				C316.5,367.2,313.5,367.2,313.5,369.2L313.5,369.2z" style="fill:#E8E8E8;"/>
		</g>
	</g>
	<g id="XMLID_2943_">
		<g id="XMLID_3001_">
			<path id="XMLID_3005_" d="M291,415.3c22.3,0,44.6,0,67,0c1.9,0,1.9-3,0-3c-22.3,0-44.6,0-67,0
				C289.1,412.3,289.1,415.3,291,415.3L291,415.3z" style="fill:#E8E8E8;"/>
		</g>
	</g>
	<g id="XMLID_2950_">
		<g id="XMLID_3008_">
			<path id="XMLID_3012_" d="M335.9,415.5c0,8.6,0,17.2,0,25.8c0,1.9,3,1.9,3,0c0-8.6,0-17.2,0-25.8
				C338.9,413.6,335.9,413.6,335.9,415.5L335.9,415.5z" style="fill:#E8E8E8;"/>
		</g>
	</g>
</g>
<g id="details">
	<circle id="XMLID_2957_" cx="683.6" cy="60.1" r="12.1" style="fill:#C6C6C6;"/>
	<circle id="XMLID_2964_" cx="716.6" cy="83" r="10.8" style="fill:#C6C6C6;"/>
	<circle id="XMLID_2971_" cx="1116.2" cy="646.8" r="9.3" style="fill:#444444;"/>
	<circle id="XMLID_2978_" cx="1085.8" cy="605.4" r="7.7" style="fill:#444444;"/>
	<circle id="XMLID_2985_" cx="722.1" cy="44.5" r="5.5" style="fill:#444444;"/>
	<circle id="XMLID_2992_" cx="377.4" cy="502.8" r="20.3" style="fill:#444444;"/>
	<circle id="XMLID_2999_" cx="393.6" cy="480.7" r="19" style="fill:#C6C6C6;"/>
	<circle id="XMLID_3000_" cx="1119" cy="598.9" r="6.5" style="fill:#C6C6C6;"/>
	<circle id="XMLID_3006_" cx="1278.1" cy="96" r="13.1" style="fill:#C6C6C6;"/>
	<g id="XMLID_3007_">
		<g id="XMLID_19_">
			<path id="XMLID_23_" d="M755.1,209.5c-2-1.1-1.9-3.8-1-5.4c1.1-1.8,2.5-2.6,4.6-3.2c2.5-0.6,5.1-0.6,7.6-0.9
				c3.1-0.4,6.5-1.2,8.8-3.6c2.9-2.9,2.4-6.7,2.1-10.4c-0.5-6.5,3.2-12.3,10-13c5.6-0.6,13.6,0.3,13.9-7.5
				c0.2-4.6-3.8-10.6,1.2-13.9c3.7-2.4,9.9-0.6,13.6,0.6c1.8,0.6,2.6-2.3,0.8-2.9c-6.3-2.1-18.1-3.8-19.8,5.1
				c-0.5,2.3,0.2,4.5,0.6,6.8c0.5,2.6,1.5,5.3-1.2,7.5c-1.3,1.1-3.6,0.9-5.2,1c-4.6,0.3-8.5,0.3-12.1,3.5c-3.5,3-5.1,7.3-4.9,11.9
				c0.2,4.9,0.6,9.5-5,11.2c-2.7,0.9-5.6,0.7-8.4,1.1c-4,0.5-8.1,1.8-9.8,5.8c-1.4,3.3-0.7,7,2.5,8.8
				C755.3,213,756.8,210.4,755.1,209.5L755.1,209.5z" style="fill:#898989;"/>
		</g>
	</g>
	<g id="XMLID_3013_">
		<g id="XMLID_13_">
			<path id="XMLID_17_" d="M792.9,190.3c-2.7-1.6-1.8-5.5,0.1-7.4c2.3-2.4,6.6-2.5,9.6-2.9c3.2-0.4,6.5-0.9,9.3-2.6
				c2.1-1.3,3.8-3.3,4.4-5.8c0.8-3.8-2.7-9.2-0.6-12.5c2.1-3.3,7.9-1.8,11.1-1.9c2.6-0.1,5-0.5,7.1-2.2c2.6-2.1,3.5-5.3,3.8-8.5
				c0.3-2.1,0.2-4.2,0.5-6.3c0.4-2.8,5-10.8,8.2-5.1c0.9,1.7,3.5,0.2,2.6-1.5c-1.6-2.9-4.9-3.8-8-2.6c-3.9,1.4-5.3,5.3-5.8,9.1
				c-0.5,3.5,0.1,7.4-1.6,10.6c-1.9,3.5-5.7,3.6-9.2,3.5c-3.5-0.1-7.7-0.6-10.4,2.2c-3.1,3.3-1.3,7.5-0.7,11.4
				c1.5,9.9-10.4,8.5-16.6,10.1c-3.7,1-6.9,3-8,6.8c-1,3.3-0.1,6.4,2.8,8.2C793,193.9,794.5,191.3,792.9,190.3L792.9,190.3z" style="fill:#898989;"/>
		</g>
	</g>
	<g id="XMLID_3014_">
		<g id="XMLID_97_">
			<path id="XMLID_101_" d="M697.1,917.2c-3-3.7-1.8-9.3,1.6-12.3c4.3-3.8,10.4-1.9,13.3,2.6c3,4.6,2.4,10.3-1.9,13.9
				c-5.5,4.6-14.2,1.4-14.3-6.1c0-1.9-3-1.9-3,0c0.1,7.8,7.8,13.4,15.3,10.7c7.8-2.8,11-11.9,7.1-19c-3.4-6.2-11.3-9.7-17.5-5.2
				c-5.5,4.1-7.1,12.1-2.7,17.5C696.2,920.8,698.3,918.6,697.1,917.2L697.1,917.2z" style="fill:#828282;"/>
		</g>
	</g>
	<g id="XMLID_3015_">
		<g id="XMLID_91_">
			<path id="XMLID_95_" d="M717.4,931.6c-3.6-2.3-7.2-5.5-8.2-9.8c-1.5-6.5,4.5-12,10.6-8.5c3.9,2.3,7.6,6.9,6.9,11.7
				c-0.6,4.2-7.1,8.1-10.3,3.7c-1.1-1.5-3.7-0.1-2.6,1.5c3.4,4.7,10.2,4,13.8-0.2c5-5.8,0.6-14.2-4.6-18.1
				c-5.9-4.5-13.4-3.7-16.3,3.7c-3.1,7.7,2.9,14.7,9.1,18.6C717.5,935.2,719,932.6,717.4,931.6L717.4,931.6z" style="fill:#828282;"/>
		</g>
	</g>
	<g id="XMLID_3016_">
		<g id="XMLID_61_">
			<path id="XMLID_65_" d="M390.9,821.5c-3-2.4-4.1-6.5-1.2-9.5c2.6-2.8,5.9-2.3,9.1-0.8c2.9,1.3,5.7,2.9,9,2.3
				c10.2-1.9,0.9-16.6,9.2-19.8c3.5-1.3,4.1,0.7,6.3,2.8c1.1,1,2.1,1.6,3.6,1.7c2.4,0.2,4.4-1.4,5.7-3.3c2.2-3.6,1.2-8.3,2.2-12.2
				c0.7-2.6,2.1-5.8,4.6-7c3.1-1.5,7.9,0.1,7.9,4c0,1.9,3,1.9,3,0c0.1-8.7-11.3-9.4-15.8-3.6c-1.3,1.7-2.1,3.8-2.7,5.8
				c-0.7,2.8,0.1,7.1-1.1,9.6c-3.6,7.6-5.7,2.1-7.5,0.4c-0.8-0.7-1.5-1.3-2.5-1.6c-1.6-0.6-3.4-0.4-5,0.4c-4.8,2.2-5.6,7.3-5.7,12
				c-0.1,2.7,1,7.4-3.6,8.1c-1.9,0.3-4-1-5.6-1.7c-2-0.9-3.9-2-6.2-2.1c-9.5-0.6-13,11.2-6,16.8
				C390.3,824.9,392.4,822.8,390.9,821.5L390.9,821.5z" style="fill:#828282;"/>
		</g>
	</g>
	<g id="XMLID_3017_">
		<g id="XMLID_55_">
			<path id="XMLID_59_" d="M426.1,777c-1.9-3.6-1.1-8,1.8-10.9c3-2.9,6.3-1.8,9.8-2.8c4.8-1.4,5.1-5.3,5.4-9.7
				c1-13.2,22.1-6.1,23.7-19.6c0.2-1.9-2.8-1.9-3,0c-0.9,7.8-13.3,7-18.5,10.1c-2,1.2-3.6,2.7-4.4,4.9c-1,2.6-0.2,5.5-1,8.1
				c-1.5,4.9-7.1,3-10.7,4.5c-1.8,0.8-3.2,2-4.4,3.5c-3.1,3.9-3.5,9-1.3,13.3C424.4,780.2,427,778.7,426.1,777L426.1,777z" style="fill:#828282;"/>
		</g>
	</g>
	<g id="XMLID_3018_">
		<g id="XMLID_49_">
			<path id="XMLID_53_" d="M333.5,211.7c-2.8-7.7-3.7-18,4.4-22.9c7.7-4.6,15.1,2.5,15.9,10.1
				c0.7,6.8-3.8,14.3-10.5,16.3c-6.9,2-14.2-2.6-15.5-9.6c-0.3-1.9-3.2-1.1-2.9,0.8c1.6,8.6,10.8,14.2,19.2,11.7
				c8.5-2.4,14-11.9,12.6-20.4c-1.4-8.7-9.7-16.1-18.6-12.2c-10.8,4.6-10.9,17.6-7.4,27.1C331.2,214.3,334.1,213.6,333.5,211.7
				L333.5,211.7z" style="fill:#898989;"/>
		</g>
	</g>
	<g id="XMLID_3020_">
		<g id="XMLID_37_">
			<path id="XMLID_41_" d="M344.6,194.9c-12-2.2-6.3-21.7,2.6-24c7.6-2,10.3,7,9,12.8c-0.5,2.3-1.3,4.6-2.5,6.7
				c-1.5,2.7-6.6,8.1-9,2.4c-0.8-1.8-3.3-0.2-2.6,1.5c1.2,2.9,4.2,4.2,7.2,3.7c3.7-0.7,6-4.2,7.6-7.4c3.5-7.3,4.6-18.1-4.1-22.2
				c-14.7-7-27.1,26.2-9.1,29.4C345.6,198.1,346.5,195.3,344.6,194.9L344.6,194.9z" style="fill:#898989;"/>
		</g>
	</g>
	<g id="XMLID_3022_">
		<g id="XMLID_85_">
			<path id="XMLID_89_" d="M1109.4,740.8c-4.1-8.1,7.8-13.1,11.3-4.9c0.2,0.6,1.1,0.9,1.7,0.7c4.4-1.7,6.1-5.3,8.3-9.2
				c1.6-2.9,3.4-6.5,7.2-6.8c4.4-0.4,8,3.9,7.6,8.1c-0.2,1.9,2.8,1.9,3,0c0.7-6.3-5.5-12.2-11.9-10.9c-8.4,1.7-7.7,13.2-14.9,16
				c0.6,0.2,1.1,0.5,1.7,0.7c-5.1-11.9-22.3-3.6-16.5,8C1107.7,744,1110.3,742.5,1109.4,740.8L1109.4,740.8z" style="fill:#828282;"/>
		</g>
	</g>
	<g id="XMLID_3029_">
		<g id="XMLID_79_">
			<path id="XMLID_83_" d="M1079.8,247c-3.9,4.3-5.1,10.3-3,15.8c1,2.5,2.7,4.5,4.8,6.1c3.2,2.5,9.6,4.9,8.4,9.7
				c-1,4.5-6.8,8.8-0.9,12.8c2.3,1.6,5.3,1.7,7.9,2.6c5.3,1.8,7.9,8,3.6,12.5c-1.3,1.4,0.8,3.5,2.1,2.1c3.5-3.7,4-9.3,1-13.6
				c-1.5-2.1-3.6-3.2-6-3.9c-1.5-0.5-3.1-0.7-4.6-1.2c-3.5-1.1-3.6-3.8-2.1-6.9c1.1-2.4,2.7-4,2.1-6.8c-0.5-2.3-2.2-4-3.9-5.4
				c-3-2.4-6.9-4-9-7.4c-2.7-4.5-1.9-10.4,1.5-14.2C1083.2,247.7,1081.1,245.6,1079.8,247L1079.8,247z" style="fill:#828282;"/>
		</g>
	</g>
	<g id="XMLID_3036_">
		<g id="XMLID_67_">
			<path id="XMLID_71_" d="M1112.7,281.2c-2.9,0.8-4.5,3.4-4.2,6.5c0.4,4.1,4.1,6.2,7.2,8.2c2.3,1.5,3.3,2.3,3.9,5.1
				c0.6,2.5,0.1,2.8,0,4.9c0,1.3,0.3,2.4,1.1,3.5c1,1.4,2.7,2.1,4.1,3.1c3.6,2.5,4.8,6.3,3.3,10.4c-0.7,1.8,2.2,2.6,2.9,0.8
				c1.1-3.1,1.1-6.3-0.4-9.2c-1.6-3.2-7.9-5.6-8-9c0-1.5,1-2.8,0.8-4.4c-0.2-1.3-0.7-2.5-1.5-3.6c-1.3-1.8-3-3-4.9-4.3
				c-2.2-1.4-9.5-7.6-3.7-9.2C1115.3,283.6,1114.5,280.7,1112.7,281.2L1112.7,281.2z" style="fill:#828282;"/>
		</g>
	</g>
	<g id="XMLID_3043_">
		<g id="XMLID_31_">
			<path id="XMLID_35_" d="M774.6,563.9c-1.7-3-0.6-7.5,3.1-8.4c2.5-0.6,5.7,0.6,7.1,2.8c3.6,5.4-5.1,10.6-9.3,6.9
				c-1.4-1.3-3.6,0.8-2.1,2.1c7,6.2,19.9-2.7,13.7-11c-2.5-3.3-7.4-4.9-11.2-3.4c-4.9,2-6.2,8.1-3.8,12.4
				C773,567.1,775.5,565.6,774.6,563.9L774.6,563.9z" style="fill:#898989;"/>
		</g>
	</g>
	<g id="XMLID_3050_">
		<g id="XMLID_73_">
			<path id="XMLID_77_" d="M776.7,555.1c-2.6-5.2-3.5-11.7,0.1-16.7c3.3-4.6,10.2-6,14.3-1.8c4.1,4.1,3.9,10.7,0.8,15.4
				c-3.5,5.3-10.4,6.6-16.1,4.6c-1.8-0.7-2.6,2.2-0.8,2.9c7,2.6,15.3,0.5,19.5-5.9c3.9-6,3.8-14.9-1.8-19.7
				c-4.9-4.3-12.4-3-16.9,1.3c-5.9,5.7-5,14.8-1.7,21.6C775,558.3,777.5,556.8,776.7,555.1L776.7,555.1z" style="fill:#828282;"/>
		</g>
	</g>
	<g id="XMLID_3051_">
		<g id="XMLID_43_">
			<path id="XMLID_47_" d="M1277.7,382.2c9.1-7.3,18.3-14.7,27.4-22c-0.9-0.4-1.7-0.7-2.6-1.1
				c-0.8,6.6-2.6,12.9-5.6,18.8c-0.6,1.3,0.7,2.9,2.1,2.1c10.9-6.9,22.2-13.2,33.9-18.7c-0.7-0.7-1.4-1.4-2.1-2.1
				c-4.2,6-6.9,12.5-8.3,19.7c-0.2,1.2,1,2.4,2.2,1.7c9.9-5.8,19.7-11.6,29.6-17.4c-0.7-0.6-1.5-1.1-2.2-1.7
				c-1.2,5.9-2.3,11.7-3.5,17.6c-0.4,1.9,2.5,2.7,2.9,0.8c1.2-5.9,2.3-11.7,3.5-17.6c0.2-1.2-1-2.4-2.2-1.7
				c-9.9,5.8-19.7,11.6-29.6,17.4c0.7,0.6,1.5,1.1,2.2,1.7c1.3-6.9,4-13.2,8-19c0.9-1.3-0.8-2.6-2.1-2.1
				c-11.7,5.5-23,11.8-33.9,18.7c0.7,0.7,1.4,1.4,2.1,2.1c3.2-6.5,5.2-13.2,6-20.4c0.2-1.4-1.7-1.8-2.6-1.1
				c-9.1,7.3-18.3,14.7-27.4,22C1274.1,381.3,1276.2,383.4,1277.7,382.2L1277.7,382.2z" style="fill:#898989;"/>
		</g>
	</g>
	<g id="XMLID_3057_">
		<g id="XMLID_25_">
			<path id="XMLID_29_" d="M1315.9,401.3c6.8-4.3,13.5-8.6,20.2-12.9c-0.8-0.4-1.5-0.9-2.3-1.3
				c-0.6,4.8-1.8,9.2-3.5,13.7c-0.5,1.3,1.1,2.3,2.2,1.7c11.2-6.1,22-12.8,32.4-20c-0.7-0.6-1.5-1.1-2.2-1.7c-2,4.8-4,9.6-6,14.3
				c-0.7,1.8,2.2,2.6,2.9,0.8c2-4.8,4-9.6,6-14.3c0.5-1.2-1.2-2.4-2.2-1.7c-10.5,7.2-21.3,13.9-32.4,20c0.7,0.6,1.5,1.1,2.2,1.7
				c1.8-4.7,2.9-9.5,3.6-14.5c0.1-1.1-1.4-1.9-2.3-1.3c-6.7,4.3-13.5,8.6-20.2,12.9C1312.8,399.8,1314.3,402.3,1315.9,401.3
				L1315.9,401.3z" style="fill:#898989;"/>
		</g>
	</g>
	<circle id="XMLID_3058_" cx="732.3" cy="690.8" r="16.9" style="fill:#444444;"/>
</g>
<g id="girl">
	<g id="leg_right_1_">
		<path id="XMLID_1760_" d="M965.4,1036.4c1.1,6.7,2.2,13.4,3.3,20c-12.5,13.8-23.9,22.7-32.2,28.4c-9.3,6.4-22.4,14.1-33.8,30.1
			c-1.5,2.1-2.6,3.8-3.3,5c11.1-3.2,22.3-6.4,33.4-9.6c24.8-7.2,49.6-14.4,74.3-21.7c-4-25.1-8.1-50.1-12.1-75.2
			C985.1,1021.1,975.3,1028.7,965.4,1036.4z"/>
		<path id="XMLID_1748_" d="M906.1,706.1c0.2,6.3,0.6,15.4,1.4,26.4c1.1,16.7,4.1,54.9,19.6,135.2
			c11,56.9,22.4,104.9,33.8,152.8c1.7,7.1,3.1,12.9,4.1,16.9c10.8-2,21.6-4.1,32.4-6.1c-1.5-10.8-3.6-27-6.1-46.6
			c-9.6-76.1-15.6-124.5-18.3-181.9c-1.1-23.9-1.9-57.7-0.7-98.7C950.2,704.7,928.1,705.4,906.1,706.1z" style="fill:#FFFFFF;"/>
		<path id="XMLID_1768_" d="M942.3,716.5c1,7.2,2.5,18.1,4.3,31.2c6.9,49.4,12.3,85.8,13.4,93.6
			c4.7,31.6,12.3,87.2,25.3,192c3.9-0.4,7.9-0.7,11.8-1.1c-1.7-10.9-4.2-27.8-7-48.4c-6.6-49-15.3-114.2-18.3-195.8
			c-0.6-16.3-1.2-39.8-1.1-68.3C961.3,718.7,951.8,717.6,942.3,716.5z" style="opacity:0.11;fill:#606060;"/>
		<g id="XMLID_1717_">
			<g id="XMLID_1771_">
				<path id="XMLID_1775_" d="M904.3,707.7c6.9,92,25.1,182.6,45.8,272.4c5.9,25.7,12,51.3,18.2,77
					c0.4,1.9,3.3,1.1,2.9-0.8c-21.3-89.2-42.7-178.6-55.3-269.5c-3.7-26.3-6.5-52.6-8.5-79.1C907.2,705.8,904.2,705.8,904.3,707.7
					L904.3,707.7z" style="fill:#161616;"/>
			</g>
		</g>
		<g id="XMLID_1724_">
			<g id="XMLID_1779_">
				<path id="XMLID_1784_" d="M969.6,722.3c-0.1,95.7,7.4,191.4,22.4,285.9c4.3,27,9.2,53.8,14.7,80.6
					c0.4,1.9,3.3,1.1,2.9-0.8c-19.2-93.8-31-189.1-35.2-284.8c-1.2-27-1.7-53.9-1.7-80.9C972.6,720.4,969.6,720.4,969.6,722.3
					L969.6,722.3z" style="fill:#161616;"/>
			</g>
		</g>
		<g id="XMLID_1725_">
			<g id="XMLID_1787_">
				<path id="XMLID_1792_" d="M968.9,1055.8c-13,10.9-25.9,21.9-38.9,32.8c-11,9.3-23.3,18.2-31,30.7
					c-0.7,1.1,0.4,2.6,1.7,2.2c36.1-10.5,72.2-20.9,108.3-31.4c1.9-0.5,1.1-3.4-0.8-2.9c-36.1,10.5-72.2,20.9-108.3,31.4
					c0.6,0.7,1.1,1.5,1.7,2.2c7.8-12.8,20.7-21.9,32-31.4c12.5-10.5,24.9-21,37.4-31.5C972.5,1056.7,970.3,1054.6,968.9,1055.8
					L968.9,1055.8z" style="fill:#161616;"/>
			</g>
		</g>
	</g>
	<g id="leg_left_1_">
		<path id="XMLID_1735_" d="M1073.6,1020.1c4.5,14.1,8.9,28.1,13.4,42.2c-10.4,7.3-19.5,13.8-27.1,19.4
			c-16.4,11.9-22.8,16.9-30.2,24.1c-5.1,5-9,9.4-11.6,12.5c10-1.6,32.5-5.3,55.6-10.3c19.1-4.2,15.6-4.3,23.7-5.6
			c5.3-0.8,11.7-1.5,19.4-5.2c3-1.4,5.3-2.8,6.9-3.9c-0.4-3.8-0.8-7.7-1.3-11.6c-2.7-20.9-7.2-40.1-12.5-57.3
			C1097.7,1022.9,1085.7,1021.5,1073.6,1020.1z"/>
		<path id="XMLID_1732_" d="M993.9,716.2c2,14.8,5.1,34.9,9.6,58.5c3.4,17.8,11.2,56.4,25.6,106.6
			c11.3,39.4,14.9,44.7,36.1,113c7,22.5,12.5,40.9,16,52.9c10.4-2.9,20.8-5.9,31.2-8.8c-2.1-11.2-5.2-27.9-8.8-48.1
			c-12.4-69.7-23.8-133.3-32-209.1c-2.9-26.5-6.4-63.5-8.8-108.2C1039.8,687.3,1016.8,701.7,993.9,716.2z" style="fill:#FFFFFF;"/>
		<g id="XMLID_1700_">
			<g id="XMLID_1739_">
				<path id="XMLID_1747_" d="M993,720.6c12.2,90.9,39.5,178.8,67.6,265.8c8.2,25.2,16.4,50.4,24.6,75.6
					c0.6,1.8,3.5,1,2.9-0.8c-28.5-87.6-58.9-175.1-78.7-265.2c-5.5-25.2-10.1-50.6-13.6-76.2C995.6,717.9,992.8,718.7,993,720.6
					L993,720.6z" style="fill:#161616;"/>
			</g>
		</g>
		<g id="XMLID_1708_">
			<g id="XMLID_1750_">
				<path id="XMLID_1759_" d="M1061.7,689.3c7.6,105,21.6,209.5,41.9,312.9c5.8,29.3,12,58.5,18.8,87.6
					c0.4,1.9,3.3,1.1,2.9-0.8c-23.8-102.3-41.4-206-52.6-310.4c-3.2-29.7-5.8-59.4-8-89.2C1064.6,687.3,1061.6,687.3,1061.7,689.3
					L1061.7,689.3z" style="fill:#161616;"/>
			</g>
		</g>
		<g id="XMLID_1716_">
			<g id="XMLID_1763_">
				<path id="XMLID_1767_" d="M1085.3,1062.6c-24.6,16.1-49.4,32.5-69.3,54.4c-1,1.1,0,2.8,1.5,2.5
					c23.6-4.7,47.2-9.5,70.7-14.2c5.8-1.2,11.6-2.3,17.4-3.5c4.5-0.9,9.5-1.4,13.8-3.4c5.3-2.5,8.6-8.9,4.2-13.8
					c-1.3-1.5-3.4,0.7-2.1,2.1c8.1,9.3-17.4,12.4-21.5,13.2c-9.4,1.9-18.7,3.8-28.1,5.7c-18.4,3.7-36.8,7.4-55.2,11.1
					c0.5,0.8,1,1.7,1.5,2.5c19.8-21.7,44.3-38,68.7-54C1088.4,1064.1,1086.9,1061.5,1085.3,1062.6L1085.3,1062.6z" style="fill:#161616;"/>
			</g>
		</g>
		<path id="XMLID_1737_" d="M1043.3,730.4c1.3,8.8,4.8,32.9,6.1,41.9c19.5,134.4,24.8,173.4,38.5,228.5
			c2.7,10.8,6.5,25.4,11.5,42.6c4.5-1.4,9-2.7,13.5-4.1c-1.8-9.8-4.3-24.4-7.4-41.9c-13.7-77.6-20.6-116.3-24.3-140.6
			c-5.3-34.1-11.6-82.3-15.5-142C1058.2,720,1050.7,725.2,1043.3,730.4z" style="opacity:0.1;fill:#606060;"/>
	</g>
	<g id="skirt">
		<path id="XMLID_1682_" d="M917.1,536.3c-5.3,16-10.2,33.7-14,53c-10.5,52.5-10.1,99.2-6.3,135.7
			c8.3,3.7,20.2,8.4,34.9,12.3c16.6,4.3,45.8,11.7,82,5.7c13.7-2.3,35.4-7.6,59.4-21.7c-0.7-26.1-3.3-56.4-9.4-89.9
			c-6.7-36.5-16.2-68.1-25.7-94.3C997.7,536.9,957.4,536.6,917.1,536.3z" style="fill:#7F7F7F;"/>
		<path id="XMLID_1690_" d="M1012.3,539.5c3.3,8.8,6.3,18,9,27.7c18.4,66.5,13.5,127.8,3.7,174.2
			c8.6-2.2,18.5-5.5,29.2-10.5c6.7-3.1,12.7-6.5,17.9-9.7c0.2-14.1-0.2-29.1-1.5-44.8c-4.6-55.5-18.7-102.5-33.6-139
			C1028.8,538,1020.6,538.8,1012.3,539.5z" style="opacity:0.11;fill:#606060;"/>
	</g>
	<g id="arm_right_1_">
		<path id="XMLID_1666_" d="M936.5,321.7c-2.6,1.9-6.1,4.6-9.9,8.2c-12.2,11.5-18.5,23-20.2,26.2
			c-5.2,10-7.2,18.5-10.3,32.2c-3.6,15.6-3,21-8.6,28.3c-5.4,7.1-12.3,10.5-15.5,12c-9.4,4.6-17.8,4.7-22.8,4.7
			c-11.2,0.1-20.2-3-25.8-5.6c-1.1,1.4-2.3,2.9-3.4,4.3c-3.2-1.6-8.1-4-14.2-6.4c-12-4.8-18.1-7.2-25.3-6.4
			c-1.5,0.2-14.3,1.7-17.2,9.9c-1,2.9-0.9,7.1,1.3,9c2.6,2.2,7.6,1,12,0c3.7-0.8,5.5-1.8,7.7-0.9c1.6,0.7,2.6,2.1,3.4,3.9
			c3.1,6.4,1.1,11.4,2.1,21.9c0.5,5.7,0.9,8.7,3,10.3c0.7,0.6,3.2,2.2,14.2-0.9c4-1.1,9.7-3,16.3-6.4c-0.4,2.7-0.9,5.4-1.3,8.2
			c6.8,1.7,16.7,3.7,28.8,4.7c17.7,1.5,29.8,2.5,44.2-2.6c16-5.7,26.4-15.8,31.3-21.5c9.7-11.1,13.5-22.1,15.5-27.9
			C955.9,386.4,939.1,330.3,936.5,321.7z" style="fill:#FFFFFF;"/>
		<path id="XMLID_1674_" d="M941.2,335.8c-0.8,6.8-2.2,16.8-4.3,28.8c-4.6,25.6-6.8,38.4-13.3,51.5
			c-3.7,7.4-11.8,23.9-28.8,34.8c-29.3,18.8-64.1,7.7-70.4,5.6c-10.3,5.2-20.6,10.3-30.9,15.5c2.7,0.5,6,0.8,9.9,0.4
			c8.9-0.8,15.5-4.5,18.9-6.9c0,3.1,0,6.3,0,9.4c6.8,1.6,16.7,3.5,28.8,4.3c17.1,1.1,29.7,1.9,44.2-3.4
			c25.2-9.3,37.6-30.5,39.9-34.8c7-12.6,8.3-23.5,9.9-38.6C946.7,387.2,947.3,364.1,941.2,335.8z" style="opacity:0.1;fill:#606060;"/>
		<g id="XMLID_1599_">
			<g id="XMLID_1685_">
				<path id="XMLID_1689_" d="M935.7,320c-15.6,11.2-27.8,26.7-34.7,44.7c-7.8,20.5-7.7,43.5-19.2,62.6
					c-1,1.7,1.6,3.2,2.6,1.5c10.5-17.5,11.5-38.1,17.4-57.2c6.1-19.7,18.6-36.9,35.4-49C938.8,321.5,937.3,318.9,935.7,320
					L935.7,320z" style="fill:#161616;"/>
			</g>
		</g>
		<g id="XMLID_1600_">
			<g id="XMLID_1694_">
				<path id="XMLID_1698_" d="M822.2,428.2c0.8,14.5,0.4,29-1.2,43.4c-0.2,1.9,2.8,1.9,3,0c1.7-14.4,2.1-28.9,1.2-43.4
					C825.1,426.2,822.1,426.2,822.2,428.2L822.2,428.2z" style="fill:#161616;"/>
			</g>
		</g>
		<g id="XMLID_1601_">
			<g id="XMLID_1702_">
				<path id="XMLID_1707_" d="M822.4,429.6c14.4,4.6,30.5,7.8,45.3,2.9c11.2-3.7,20.8-11.6,24.9-22.9
					c0.7-1.8-2.2-2.6-2.9-0.8c-4.1,11.2-14.3,18.7-25.6,21.6c-13.6,3.5-27.8,0.5-40.8-3.7C821.4,426.1,820.6,429,822.4,429.6
					L822.4,429.6z" style="fill:#161616;"/>
			</g>
		</g>
		<g id="XMLID_1602_">
			<g id="XMLID_1710_">
				<path id="XMLID_1715_" d="M822.1,474.8c23.1,6.1,50.6,9.7,74,2.8c21.2-6.3,34.7-24.4,44.8-43
					c0.9-1.7-1.7-3.2-2.6-1.5c-10.1,18.5-23.4,36.4-44.7,42.1c-22.5,6-48.5,2.6-70.7-3.2C821.1,471.4,820.3,474.3,822.1,474.8
					L822.1,474.8z" style="fill:#161616;"/>
			</g>
		</g>
		<g id="XMLID_1653_">
			<g id="XMLID_1718_">
				<path id="XMLID_1723_" d="M821.8,429.7c-6.1,0.1-12.2-4.1-17.7-6.6c-4.2-1.9-8.6-3.7-13.1-4.7
					c-8-1.8-16.6-1.2-23.2,4.1c-4.1,3.3-9.2,10.9-4.9,15.9c2,2.2,5.2,3.2,8.1,3.3c3.7,0.1,13.5-5.9,15.3-1.3c0.7,1.8,3.6,1,2.9-0.8
					c-1.8-4.7-6.4-4.7-10.6-3.1c-4.1,1.5-14.6,5.4-14.1-3.9c0.2-4,4.9-7.9,8.1-9.7c8.9-4.8,19.7-1.7,28.3,2.1
					c6.5,2.9,13.6,7.9,20.9,7.8C823.8,432.7,823.8,429.7,821.8,429.7L821.8,429.7z" style="fill:#161616;"/>
			</g>
		</g>
		<g id="XMLID_1665_">
			<g id="XMLID_1726_">
				<path id="XMLID_1731_" d="M794,474.1c9.9,2,19.8-0.1,27.9-6.2c1.5-1.1,0-3.7-1.5-2.6c-7.5,5.6-16.4,7.7-25.6,5.9
					C792.9,470.8,792.1,473.7,794,474.1L794,474.1z" style="fill:#161616;"/>
			</g>
		</g>
	</g>
	<g id="torso_1_">
		<path id="XMLID_1612_" d="M974.8,302.2c-5.2,0-10.3,0-15.5,0c0,3.1,0,6.2,0,9.3c-3.8,0.6-9.1,1.8-15,4.6
			c-4.7,2.3-8.3,5-10.8,7.2c-3.5,18.8-7.1,33.9-9.8,44.4c-4,15.3-6.2,21.7-6.7,33.5c-0.4,8.9,0.7,10,1,27.3
			c0.1,7.5,0.3,16.8-0.5,27.9c-0.6,8-1.4,13.9-4.1,30.4c-4.8,29.2-5.5,30.9-6.7,39.2c-1.7,11.8-3.1,28.8-1.5,50.1
			c2.4,1.6,6.3,4.1,11.4,6.7c9.3,4.9,14,6,21.7,9.8c4.2,2.1,10.2,5.5,17,10.8c2.1-15.5,4.1-31,6.2-46.4c2.8,16.5,5.5,33,8.3,49.5
			c4.6,0.4,11.4,0.6,19.6,0c10.7-0.8,31-2.7,49.5-16c9.6-6.9,13.9-13.4,15-15c4.7-7.2,6.5-14.2,7.2-18.6c-1.6-9.1-3.5-21.8-5.2-37.2
			c-2-19.2-2.9-36.7-3.1-65.5c-0.2-23.7,0-54.6,1.5-91.3c3.3-10.7,6.5-21.3,9.8-32c-6.6-4.3-14.5-8.8-23.7-12.9
			c-12-5.4-23.2-8.7-32.5-10.8c0.2-3.8,0.3-7.6,0.5-11.4c-3.4,2.5-11.3,7.5-22.2,7.7C981.6,303.8,977.8,303.1,974.8,302.2z" style="fill:#FFFFFF;"/>
		<path id="XMLID_1620_" d="M1053.8,379.1c-2.3,7.4-5.7,19.3-9.3,34.1c-13.2,54.7-11,79.3-19.6,113.5
			c-4.9,19.3-14.6,47.5-36.6,80c13.5-1.3,24-4.6,31-7.2c12.1-4.6,24.2-9.2,33-21.2c6.2-8.3,8.4-16.9,9.3-22.2
			c-3-17.2-5.5-35.4-7.2-54.7C1050.1,456.1,1050.8,415,1053.8,379.1z" style="opacity:9.000000e-002;fill:#606060;"/>
		<path id="XMLID_1628_" d="M984.6,306.8c-1.1,0.4,0.3,4.3-1.5,10.3c-1.1,3.4-2.8,6-4.1,7.7c5.9,2.4,11.7,2.2,13.9-0.5
			C997.1,319.2,986.9,306,984.6,306.8z" style="opacity:0.12;fill:#606060;"/>
		<path id="XMLID_1636_" d="M958.8,555c-2,6-3.9,12.6-5.7,19.6c-2.1,8.4-3.6,16.4-4.6,23.7c2.8,1.5,5.5,3.1,8.3,4.6
			C957.5,587,958.2,571,958.8,555z" style="opacity:0.12;fill:#606060;"/>
		<g id="XMLID_1353_">
			<g id="XMLID_1381_">
				<path id="XMLID_1386_" d="M973.6,301c-4.9,0-9.7,0.3-14.6,0.9c-0.7,0.1-1.6,0.6-1.5,1.5c0.5,4.5,1,9,1.5,13.6
					c0.2,1.9,3.2,1.9,3,0c-0.5-4.5-1-9-1.5-13.6c-0.5,0.5-1,1-1.5,1.5c4.8-0.6,9.7-1,14.6-0.9C975.6,304,975.6,301,973.6,301
					L973.6,301z" style="fill:#161616;"/>
			</g>
		</g>
		<g id="XMLID_1354_">
			<g id="XMLID_1393_">
				<path id="XMLID_1397_" d="M959.2,305.1c3.8,3.3,6.1,7.6,6.9,12.6c0.3,1.9,3.2,1.1,2.9-0.8
					c-0.9-5.4-3.6-10.3-7.7-13.9C959.9,301.7,957.8,303.8,959.2,305.1L959.2,305.1z" style="fill:#161616;"/>
			</g>
		</g>
		<g id="XMLID_1362_">
			<g id="XMLID_1401_">
				<path id="XMLID_1405_" d="M934.6,324.5c7.6-5.7,16-9.9,25.2-12.4c1.9-0.5,1.1-3.4-0.8-2.9
					c-9.4,2.6-18.1,6.9-25.9,12.7C931.5,323.1,933,325.7,934.6,324.5L934.6,324.5z" style="fill:#161616;"/>
			</g>
		</g>
		<g id="XMLID_1363_">
			<g id="XMLID_1409_">
				<path id="XMLID_1414_" d="M1013.8,308.3c17.8,4.9,34.3,13,49,24.2c1.5,1.2,3-1.4,1.5-2.6
					c-14.9-11.3-31.7-19.5-49.7-24.5C1012.7,304.9,1011.9,307.8,1013.8,308.3L1013.8,308.3z" style="fill:#161616;"/>
			</g>
		</g>
		<g id="XMLID_1372_">
			<g id="XMLID_1417_">
				<path id="XMLID_1422_" d="M926.7,357.9c-20,43-5.4,90.8-7.7,136.1c-0.1,1.9,2.9,1.9,3,0
					c2.2-44.6-12.4-92.2,7.3-134.6C930.1,357.7,927.5,356.2,926.7,357.9L926.7,357.9z" style="fill:#161616;"/>
			</g>
		</g>
		<g id="XMLID_1373_">
			<g id="XMLID_1425_">
				<path id="XMLID_1430_" d="M916.8,444.3c0.9,22.6-5.6,44.4-9.4,66.5c-3.6,21.5-4.4,43.3-3.6,65.1
					c0.1,1.9,3.1,1.9,3,0c-0.8-22.8,0-45.6,4.1-68c3.9-21.1,9.7-41.9,8.8-63.5C919.7,442.4,916.7,442.4,916.8,444.3L916.8,444.3z" style="fill:#161616;"/>
			</g>
		</g>
		<g id="XMLID_1374_">
			<g id="XMLID_1433_">
				<path id="XMLID_1438_" d="M904.7,577.2c7.6,5,15.7,9.3,24.1,12.8c9.6,3.9,17.6,8.2,25.9,14.5c1.5,1.2,3-1.4,1.5-2.6
					c-7.3-5.6-14.6-10-23.2-13.4c-9.4-3.7-18.4-8.3-26.9-13.8C904.6,573.5,903.1,576.1,904.7,577.2L904.7,577.2z" style="fill:#161616;"/>
			</g>
		</g>
		<g id="XMLID_1377_">
			<g id="XMLID_1442_">
				<path id="XMLID_1446_" d="M957.8,603.2c1.6-16.7,3.1-33.4,4.7-50c0.2-1.9-2.8-1.9-3,0c-1.6,16.7-3.1,33.4-4.7,50
					C954.6,605.1,957.6,605.1,957.8,603.2L957.8,603.2z" style="fill:#161616;"/>
			</g>
		</g>
		<g id="XMLID_1379_">
			<g id="XMLID_1450_">
				<path id="XMLID_1454_" d="M959.8,553.9c1.6,17.9,4.4,35.6,8.2,53.2c0.4,1.9,3.3,1.1,2.9-0.8
					c-3.8-17.3-6.5-34.8-8.1-52.4C962.6,552,959.6,551.9,959.8,553.9L959.8,553.9z" style="fill:#161616;"/>
			</g>
		</g>
		<g id="XMLID_1387_">
			<g id="XMLID_1458_">
				<path id="XMLID_1463_" d="M970.3,608.9c17.9,0.7,35.7-2.4,52.3-9.1c13.3-5.4,28.6-13.1,33.9-27.4
					c0.7-1.8-2.2-2.6-2.9-0.8c-5.4,14.6-23.1,22.3-36.7,27.2c-15,5.4-30.8,7.7-46.6,7.2C968.4,605.9,968.4,608.9,970.3,608.9
					L970.3,608.9z" style="fill:#161616;"/>
			</g>
		</g>
		<g id="XMLID_1398_">
			<g id="XMLID_1466_">
				<path id="XMLID_1471_" d="M1052.6,378c-3.8,60-1.7,120.2,6.1,179.7c0.3,1.9,3.3,1.9,3,0
					c-7.9-59.6-10-119.8-6.1-179.7C1055.7,376.1,1052.7,376.1,1052.6,378L1052.6,378z" style="fill:#161616;"/>
			</g>
		</g>
		<g id="XMLID_1407_">
			<g id="XMLID_1474_">
				<path id="XMLID_1479_" d="M1059,555.4c-1.2,8.2-4,15.8-8.5,22.8c-1,1.6,1.6,3.1,2.6,1.5c4.6-7.2,7.6-15,8.8-23.5
					C1062.2,554.3,1059.3,553.5,1059,555.4L1059,555.4z" style="fill:#161616;"/>
			</g>
		</g>
		<g id="XMLID_1415_">
			<g id="XMLID_1482_">
				<path id="XMLID_1487_" d="M967.1,321.9c2.5,3,6.2,4.7,10.1,4.8c1.9,0,1.9-3,0-3c-3.2-0.1-6-1.5-8-3.9
					C967.9,318.3,965.8,320.4,967.1,321.9L967.1,321.9z" style="fill:#161616;"/>
			</g>
		</g>
		<g id="XMLID_1423_">
			<g id="XMLID_1492_">
				<path id="XMLID_1496_" d="M976,331.7c-19.3,65.5-3.3,134.4-13.1,201.1c-0.3,1.9,2.6,2.7,2.9,0.8
					c9.8-66.7-6.1-135.6,13.1-201.1C979.5,330.6,976.6,329.9,976,331.7L976,331.7z" style="fill:#161616;"/>
			</g>
		</g>
		<g id="XMLID_1431_">
			<g id="XMLID_1500_">
				<path id="XMLID_1504_" d="M968.5,340.8C968.4,340.7,968.4,340.7,968.5,340.8c-0.1,0-0.1,0,0.1,0.1
					c-0.1-0.1-0.1-0.1,0,0.1C968.6,340.9,968.6,340.8,968.5,340.8C968.6,341,968.7,341,968.5,340.8c0.1-0.1,0.1-0.1,0.1,0.1
					C968.6,340.8,968.6,340.8,968.5,340.8C968.6,340.9,968.6,341,968.5,340.8C968.6,340.6,968.6,340.7,968.5,340.8
					c0.1-0.1,0.1,0,0,0.1c0.1-0.1,0.1-0.1-0.1,0c0.1-0.1,0.1-0.1-0.1,0c-0.1,0-0.2,0-0.4,0c0.2,0,0.1,0,0,0c0.1,0.1,0.1,0.1,0,0
					c0.1,0.1,0.1,0.1,0.2,0.2c-0.1-0.2-0.1-0.2,0,0c-0.1-0.2-0.1-0.2,0,0c0,0.2,0,0.1,0-0.1c0,0.2,0,0.1,0-0.1
					c0-0.1,0.1-0.2,0.2-0.3c-0.1,0.1-0.1,0.1,0,0c0.1-0.1,0.2-0.1,0.4-0.1c-0.2,0-0.1,0,0.1,0c-0.2-0.1-0.1,0,0.1,0
					c-0.1,0-0.1-0.1-0.2-0.1c0.2,0.1,0.2,0.1,0.1,0c0.1,0.2,0.1,0.2,0,0.1c-0.1-0.1-0.1-0.1,0,0.1c0-0.2,0-0.1,0,0.1
					c0,0.2-0.1,0.3,0,0.1c-0.1,0.2-0.1,0.2,0,0.1c0.5-0.7,0.1-1.7-0.5-2.1c-0.8-0.4-1.6-0.1-2.1,0.5c-1.2,1.7,0.4,4,2.3,4.1
					c0.9,0.1,1.8-0.4,2.3-1.2c0.5-0.9,0.4-2-0.1-2.8c-1-1.7-3.6-1.9-4.6-0.1c-0.9,1.6-0.1,3.9,1.8,4.3c0.8,0.2,1.6-0.3,1.8-1
					C969.8,341.9,969.3,341,968.5,340.8L968.5,340.8z" style="fill:#161616;"/>
			</g>
		</g>
		<g id="XMLID_1439_">
			<g id="XMLID_1508_">
				<path id="XMLID_1513_" d="M964.4,373.4c0-0.6-0.1-1.2-0.1-1.8c-0.4,0.5-0.7,1-1.1,1.4c0.2,0,0.2-0.1,0.1,0
					c-0.1,0-0.1,0,0.1,0c-0.3-0.1,0.2,0-0.1,0c0,0,0.1,0,0.1,0.1c-0.1-0.1-0.1-0.1,0,0c0,0,0,0.1,0,0.1c-0.1-0.1,0-0.1,0-0.2
					c0,0.2-0.1,0.2,0,0c-0.1,0.1-0.1,0.1-0.2,0.2c0.1,0,0.3,0,0-0.1c0.4,0.1,0.7,0.3,1.1,0.4c0,0-0.1-0.2-0.1-0.3c0-0.1,0-0.2,0-0.3
					c0.5-1.9-2.4-2.7-2.9-0.8c-0.3,1.2-0.1,2.7,0.9,3.6c1.1,1.1,3.1,0.1,3.8-1c1.5-2.3-1-5.3-3.5-4.4c-0.6,0.2-1.2,0.8-1.1,1.4
					c0,0.6,0.1,1.2,0.1,1.8c0.1,0.8,0.6,1.5,1.5,1.5C963.6,374.9,964.4,374.2,964.4,373.4L964.4,373.4z" style="fill:#161616;"/>
			</g>
		</g>
		<g id="XMLID_1447_">
			<g id="XMLID_1516_">
				<path id="XMLID_1521_" d="M962.4,402.3c-0.2-0.3,0,0.1-0.1-0.2c0,0.1,0,0.1,0-0.1c0,0.1,0,0.1,0,0
					c0,0,0-0.1,0.1-0.1c-0.1,0.1,0,0,0.1-0.1c0,0-0.1,0.1-0.1,0.1c-0.4-0.1-0.8-0.1-1.2-0.2c-0.3-0.2,0.1,0.2-0.1-0.1
					c0.1,0.1,0.1,0.1,0,0c0-0.1,0-0.1,0,0.1c0-0.2,0-0.2,0-0.1c0,0.1,0,0.1,0,0.2c0-0.3,0,0.1,0,0.1c-0.1,0.3,0.1-0.1-0.1,0.1
					c-0.2,0.2,0.2-0.1-0.1,0.1c0.2-0.1,0.1,0,0,0c-0.2,0,0.5-0.1,0.1,0c0.5,0.5,1,1,1.5,1.5c0-0.6-0.1-1.2-0.1-1.8
					c0-0.8-0.7-1.5-1.5-1.5c-0.8,0-1.5,0.7-1.5,1.5c0,0.6,0.1,1.2,0.1,1.8c0,0.8,0.7,1.5,1.5,1.5c2.4-0.1,4-3,2.7-5.1
					c-0.4-0.6-1-1.2-1.7-1.2c-0.7,0-1.4,0.5-1.8,1c-0.9,1-1.1,2.6-0.4,3.8C960.8,405.5,963.4,403.9,962.4,402.3L962.4,402.3z" style="fill:#161616;"/>
			</g>
		</g>
		<g id="XMLID_1456_">
			<g id="XMLID_1524_">
				<path id="XMLID_1529_" d="M961.8,428.6c0.1,0.2,0.2,0.3,0.2,0.5c0-0.2,0,0,0,0.1c0.1-0.3-0.1,0.3,0,0
					c0.1-0.2-0.1,0.2,0,0c0-0.1,0.3-0.2,0,0c0.2-0.1-0.2,0.1,0,0c0.1,0-0.3,0-0.4,0c0.3,0-0.2-0.2,0,0c-0.2-0.2-0.4-0.4-0.5-0.5
					c0.2,0.4,0.2,0.9,0,1.5c0.3-0.3,0.7-0.7,1-1c-0.2,0.1-0.2,0.1,0,0c0.2,0,0.2,0,0,0c0,0,0.1,0,0.1,0c0.1,0.1,0.1,0.1,0,0
					c0.1,0.1,0.1,0.1,0,0.1c-0.1-0.1,0-0.1,0,0.1c0,0.2,0,0.2,0,0c0,0.2,0,0.2,0,0c0.3-0.8-0.3-1.6-1-1.8c-0.9-0.2-1.5,0.3-1.8,1
					c-0.6,1.5,0.6,3.2,2.1,3.5c0.4,0.1,0.9,0.1,1.3-0.1c0.7-0.2,1-0.7,1.1-1.4c0.2-0.9,0.2-1.8-0.1-2.7c-0.3-0.9-0.9-1.6-1.9-1.7
					c-0.8-0.1-1.5,0.2-2.1,0.7c-1.2,1-1.3,2.6-0.3,3.8c0.5,0.6,1.6,0.5,2.1,0C962.4,430.1,962.4,429.2,961.8,428.6L961.8,428.6z" style="fill:#161616;"/>
			</g>
		</g>
		<g id="XMLID_1464_">
			<g id="XMLID_1532_">
				<path id="XMLID_1537_" d="M961.9,452.1C961.8,452,961.8,451.9,961.9,452.1c0,0,0,0-0.1-0.2c0,0.2,0.1-0.2,0,0.1
					c-0.4,0.2-0.9,0.5-1.3,0.7c0.4,0-0.2,0,0.1,0c-0.2-0.1-0.2-0.1-0.1,0c0.1,0.1,0.1,0-0.1-0.1c0.2,0.3-0.1-0.3,0.1,0.1
					c0.1,0.1,0.1,0.4,0,0.1c0,0.1,0.1,0.4,0,0.1c0,0.1,0,0.5,0,0.1c0,0.1-0.2,0.3,0,0.1c0-0.1,0.1-0.1,0.1-0.2c-0.1,0.1-0.1,0.1,0,0
					c0.3-0.1,0.5-0.1,0.8-0.2c-0.3,0,0.2,0.1,0.2,0.1c0,0,0.1,0.1,0.1,0.1c-0.1-0.1-0.1-0.1-0.1-0.1c0.1,0.2,0.1,0.3,0,0.5
					c0.4-0.7,0.2-1.6-0.5-2.1c-0.7-0.4-1.7-0.2-2.1,0.5c-0.6,1.2-0.3,2.6,0.8,3.3c0.6,0.4,1.4,0.6,2.1,0.4c0.6-0.2,1-0.8,1.2-1.3
					c0.8-2-0.5-4.5-2.8-4.5c-0.5,0-1.1,0.3-1.3,0.7c-0.6,1.3-0.5,2.7,0.6,3.7C961.2,455.6,963.3,453.4,961.9,452.1L961.9,452.1z" style="fill:#161616;"/>
			</g>
		</g>
		<g id="XMLID_1472_">
			<g id="XMLID_1541_">
				<path id="XMLID_1545_" d="M961.3,476c0.2,0.1,0.2,0.1,0.3,0.2c0,0,0-0.1-0.1-0.1c0.1,0.1,0.1,0.2,0,0.1
					c0-0.1,0-0.1,0,0c0,0.1,0,0.1,0-0.1c0,0.2,0,0.3-0.2,0.4c-0.5,0.1-1,0.3-1.5,0.4c0.3,0.1-0.2-0.1,0,0c-0.2-0.1-0.2-0.2-0.1,0
					c0,0-0.1-0.1-0.1-0.1c0,0.1,0.1,0.1,0.1,0.2c0-0.1,0-0.1-0.1-0.2c0,0.1,0,0.1,0.1,0.2c0-0.2,0-0.3,0-0.1c0,0,0,0.4,0,0.2
					c0-0.1,0-0.1,0,0c0,0.1,0,0.1,0,0c0.1-0.1,0-0.1,0,0c0.1-0.2,0.2-0.2,0.1-0.1c-0.1,0.1,0,0.1,0.1-0.1c-0.1,0.1-0.1,0.1,0.1,0
					c0.6,0.2,1.1,0.5,1.7,0.7c0,0.2,0,0.1,0,0c0,0.1,0,0.2,0,0.2c0-0.2,0.1-0.2,0,0c0,0.1-0.1,0.1-0.2,0.2c0.7-0.5,1-1.3,0.5-2.1
					c-0.4-0.7-1.4-1-2.1-0.5c-1.2,0.8-1.7,2.4-0.9,3.7c0.3,0.5,1.1,0.9,1.7,0.7c1.2-0.4,2-1.6,1.9-2.9c-0.1-1.3-0.8-2.5-2.1-2.8
					c-0.5-0.1-1.1,0-1.5,0.4c-1.3,1.5-0.7,3.8,1.2,4.5c0.8,0.3,1.6-0.3,1.8-1C962.5,477,962,476.3,961.3,476L961.3,476z" style="fill:#161616;"/>
			</g>
		</g>
		<g id="XMLID_1480_">
			<g id="XMLID_1549_">
				<path id="XMLID_1553_" d="M959.6,504.8c0,0.2,0,0.3-0.1,0.5c0,0-0.1,0.1-0.1,0.1c0.1-0.1,0.1-0.1,0,0
					c-0.1,0.1-0.3,0.1-0.1,0.1c-0.2,0-0.8-0.2-0.5,0c-0.2-0.3-0.5-0.6-0.7-0.9c0,0.1,0.1,0.2,0.1,0.3c0,0.1,0,0.2,0,0
					c0,0.1,0,0.2,0,0.3c0-0.2,0,0-0.1,0.1c-0.1,0.2,0.1-0.2,0,0.1c0,0-0.2,0.2-0.1,0.2c-0.1,0.1-0.2,0.1-0.3,0.2
					c0.7,0.2,1.4,0.4,2.1,0.5c-0.1-0.1-0.2-0.3-0.3-0.5c-0.1-0.2,0-0.2-0.1,0c-0.1,0.2-0.1,0.5-0.3,0.6c-0.5,0.4-1.2-0.2-1.4-0.7
					c0.2,0.8,1.1,1.3,1.8,1c0.8-0.2,1.3-1.1,1-1.8c-0.4-1.4-2.1-1.8-3.3-1c-1.3,1-0.9,2.6-0.1,3.8c0.5,0.7,1.3,1,2.1,0.5
					c0.9-0.5,1.5-1.3,1.8-2.3c0.3-1,0.2-2.4-0.6-3c-1.8-1.5-4.5,0.6-3.9,2.7C957.2,507.5,960.1,506.7,959.6,504.8L959.6,504.8z" style="fill:#161616;"/>
			</g>
		</g>
		<g id="XMLID_1488_">
			<g id="XMLID_1557_">
				<path id="XMLID_1562_" d="M957.7,535.7c0.2-0.5,0.4-1,0.7-1.5c-0.3,0.2-0.6,0.5-0.9,0.7c-0.2,0.1-0.3,0-0.5-0.1
					c-0.1-0.1-0.1-0.1,0,0c-0.1-0.2-0.2-0.4-0.1-0.7c0.1-0.2,0.2-0.3,0.4-0.3c-0.2,0-0.1,0,0.1,0c0.1,0,0.2,0,0.3,0.1
					c-0.7-0.4-1.6-0.2-2.1,0.5c-0.4,0.7-0.2,1.7,0.5,2.1c1.9,1,4.4-0.8,3.5-2.9c-0.4-0.9-1.3-1.6-2.3-1.6c-0.7,0-1.3,0.3-1.6,1
					c-0.2,0.4-0.4,0.8-0.5,1.3c-0.3,0.7-0.2,1.6,0.5,2.1C956.3,536.6,957.4,536.4,957.7,535.7L957.7,535.7z" style="fill:#161616;"/>
			</g>
		</g>
		<g id="XMLID_1497_">
			<g id="XMLID_1565_">
				<path id="XMLID_1570_" d="M997.7,297.8c-3.4,1.1-6.7,2.2-10.1,3.3c-1.6,0.5-4.2,0.9-5.1,2.5c-0.8,1.4-0.1,2.6,0.2,4
					c0.9,4-0.1,7.9-2.3,11.4c-1.1,1.6,1.5,3.1,2.6,1.5c2.4-3.6,3.5-7.8,2.9-12.2c0-0.2-0.8-2.5-0.6-2.8c0.5-1.1,3.6-1.7,4.6-2
					c2.9-1,5.7-1.9,8.6-2.9C1000.3,300,999.5,297.1,997.7,297.8L997.7,297.8z" style="fill:#161616;"/>
			</g>
		</g>
		<g id="XMLID_1506_">
			<g id="XMLID_1573_">
				<path id="XMLID_1578_" d="M983.9,305.9c3,3.3,5,7.1,5.8,11.5c0.4,1.9,3.3,1.1,2.9-0.8c-0.9-4.9-3.2-9.2-6.6-12.8
					C984.7,302.3,982.6,304.5,983.9,305.9L983.9,305.9z" style="fill:#161616;"/>
			</g>
		</g>
		<g id="XMLID_1514_">
			<g id="XMLID_1581_">
				<path id="XMLID_1586_" d="M996,302c4.1-1.9,8.3-3.2,12.7-4c-0.6-0.5-1.3-1-1.9-1.4c0.4,4-0.2,7.9-1.9,11.5
					c-0.8,1.7,1.8,3.3,2.6,1.5c2-4.1,2.8-8.5,2.3-13c-0.1-1-0.9-1.6-1.9-1.4c-4.7,0.8-9.1,2.3-13.4,4.3
					C992.7,300.2,994.2,302.8,996,302L996,302z" style="fill:#161616;"/>
			</g>
		</g>
		<g id="XMLID_1522_">
			<g id="XMLID_1590_">
				<path id="XMLID_1594_" d="M1008.7,307.5c2.1,0.5,4.2,0.7,6.3,0.6c1.9,0,1.9-3,0-3c-1.9,0-3.7-0.1-5.5-0.5
					C1007.6,304.1,1006.8,307,1008.7,307.5L1008.7,307.5z" style="fill:#161616;"/>
			</g>
		</g>
	</g>
	<g id="arm_left_1_">
		<path id="XMLID_1644_" d="M1064.1,331.1c4.1,0,6.3,8.3,11.4,20.6c10.9,26.7,16.3,40,18.6,48.5c4,15,8.2,36.3,8.3,62.4
			c-3.1,6.7-7.8,15.8-15,25.8c-6.4,8.9-18.1,24.9-39.2,37.7c-6.7,4.1-16.7,9.2-29.9,12.9c-0.7-5-1.4-10-2.1-15
			c-2.2,1.1-5.4,2.9-9.3,5.2c-6.2,3.7-7.6,5-10.3,6.2c-3.5,1.5-8.9,2.8-17,1c-4.1-11.9-7.5-21.7-10.3-29.4
			c-0.9-2.6-2.7-7.3-0.5-11.4c1.2-2.2,3.2-3.4,4.6-4.1c-1.7-3.2-2.3-5.9-2.6-7.7c-0.3-2.3-0.5-3.9,0.5-5.2c1.7-2.1,5.3-1.6,5.7-1.5
			c-0.7-4.7-1.4-9.6-2.1-14.4c-1.8-13.7-3.2-26.9-4.1-39.7c4.3-2.6,8.6-5.2,12.9-7.7c21.3-12.7,42.5-24.7,63.5-36.1
			c0.1-2.6,0.4-6.2,1-10.3c0.8-5.8,1.9-10.5,2.6-12.9C1051.2,353.8,1057.3,331.1,1064.1,331.1z" style="fill:#FFFFFF;"/>
		<path id="XMLID_1530_" d="M1062.6,330.1c3.7,8.8,8.3,21.3,12.4,36.6c6.3,23.9,12.6,46.8,8.8,75.3
			c-2,14.7-4.3,32.2-17.5,49c-16.6,21.1-39.7,27.5-48.5,29.4c-3.2-1.6-8.6-3.6-15.5-3.6c-14.4,0-24.1,9.1-26.3,11.4
			c1.2,2.8,2.4,5.5,3.6,8.3c6.6,0.8,11.3-0.3,14.4-1.5c5.7-2.2,8.3-5.6,16.5-8.8c2.8-1.1,5.1-1.7,6.7-2.1c0.2,4.1,0.3,8.3,0.5,12.4
			c11-1.4,19.2-4.4,24.3-6.7c22.4-10.1,35.2-28.4,48.5-47.5c5.7-8.1,9.8-15.1,12.4-19.6c-0.1-8.6-0.7-19.9-2.6-33
			c-3.7-26-10.3-44.8-11.9-49C1083.5,367.3,1075.7,349.4,1062.6,330.1z" style="opacity:7.000000e-002;fill:#606060;"/>
		<path id="XMLID_1580_" d="M1039.3,383.7c0.9,7.6,1.4,16.1,1,25.3c-1.4,33.6-13.7,59.8-23.2,75.9
			c5.3-3.3,11.1-7.4,17-12.4c10.7-9.1,18.6-18.4,24.3-26.3c0.7-10.3,0.2-19-0.5-25.3c-1.2-11.5-3.5-20.6-5.7-28.9
			c-1.5-6-3-10.9-4.1-14.4C1045.2,379.6,1042.3,381.7,1039.3,383.7z" style="opacity:0.1;fill:#606060;"/>
		<path id="XMLID_1598_" d="M1098.7,421.9c-1.9,0-1.7,17.2-9.8,41.3c-2.8,8.2-6.7,19.6-14.4,31.5
			c-5.5,8.4-16.9,23-38.2,35.1c7.6-2.8,16.6-7,25.8-13.4c24.7-17.4,36-40.7,40.8-52.6C1101.5,429.3,1099.9,421.9,1098.7,421.9z" style="opacity:0.1;fill:#606060;"/>
		<g id="XMLID_1538_">
			<g id="XMLID_1606_">
				<path id="XMLID_1611_" d="M1051.6,387.6c3.5,19.6,6.8,39.3,4.6,59.3c-0.2,1.9,2.8,1.9,3,0
					c2.3-20.2-1.1-40.2-4.7-60.1C1054.2,384.9,1051.3,385.7,1051.6,387.6L1051.6,387.6z" style="fill:#161616;"/>
			</g>
		</g>
		<g id="XMLID_1546_">
			<g id="XMLID_1614_">
				<path id="XMLID_1619_" d="M1056.8,445.5c-6.6,10-14.5,19-23.7,26.8c-4.6,3.9-9.5,7.4-14.7,10.6
					c-3.5,2.2-8.4,3.6-9.8,7.8c-0.6,1.8,2.3,2.6,2.9,0.8c0.8-2.7,4.8-3.9,7-5.2c2.5-1.5,5-3.1,7.4-4.8c4.3-3,8.4-6.2,12.3-9.7
					c8.1-7.3,15.1-15.6,21.1-24.7C1060.4,445.4,1057.8,443.9,1056.8,445.5L1056.8,445.5z" style="fill:#161616;"/>
			</g>
		</g>
		<g id="XMLID_1555_">
			<g id="XMLID_1622_">
				<path id="XMLID_1627_" d="M1008.5,491.9c4.2,14.7,6.7,29.8,7.6,45c0.1,1.9,3.1,1.9,3,0c-0.9-15.5-3.5-30.9-7.7-45.8
					C1010.9,489.3,1008,490.1,1008.5,491.9L1008.5,491.9z" style="fill:#161616;"/>
			</g>
		</g>
		<g id="XMLID_1563_">
			<g id="XMLID_1630_">
				<path id="XMLID_1635_" d="M1062,330.8c25.4,38.9,38.9,84.8,38.5,131.3c0,1.9,3,1.9,3,0c0.4-47-13.2-93.5-38.9-132.8
					C1063.5,327.7,1060.9,329.2,1062,330.8L1062,330.8z" style="fill:#161616;"/>
			</g>
		</g>
		<g id="XMLID_1571_">
			<g id="XMLID_1639_">
				<path id="XMLID_1643_" d="M1018,539.2c41.2-7.2,67.9-42.1,86.7-76.6c0.9-1.7-1.7-3.2-2.6-1.5
					c-18.5,33.9-44.5,68.2-84.9,75.2C1015.3,536.6,1016.1,539.5,1018,539.2L1018,539.2z" style="fill:#161616;"/>
			</g>
		</g>
		<g id="XMLID_1579_">
			<g id="XMLID_1647_">
				<path id="XMLID_1651_" d="M1007.8,491c-5.8-3.4-11.6-7.1-17.6-10.2c-4.5-2.4-10.4-5.3-15.7-4.9
					c-8.8,0.7-6.1,12.5-1.7,16.6c1.4,1.3,3.5-0.8,2.1-2.1c-2.8-2.6-6.1-10.6,0.2-11.5c3.7-0.5,8.8,2.2,12,3.7
					c6.6,3.2,12.9,7.3,19.2,11C1008,494.6,1009.5,492,1007.8,491L1007.8,491z" style="fill:#161616;"/>
			</g>
		</g>
		<g id="XMLID_1587_">
			<g id="XMLID_1655_">
				<path id="XMLID_1664_" d="M973.5,490.1c-6.3,2.2-7.4,8.6-6.1,14.5c1.1,5.1,3,10.1,4.5,15.2
					c1.5,4.8,2.5,10.1,4.5,14.7c2.8,6.2,11,3.9,16.3,2.7c3.7-0.9,7.8-2,10.8-4.4c3.7-3,5.7-6.1,10.8-7.3c1.9-0.4,1.1-3.3-0.8-2.9
					c-4.8,1.1-7.4,3.5-10.8,6.9c-2.5,2.4-5.7,3.5-8.9,4.4c-2.6,0.7-8.1,2.5-10.7,1.7c-4.7-1.6-5.3-6.7-6.5-10.8
					c-0.9-2.9-1.7-5.7-2.6-8.6c-1.8-5.9-8.6-20.1,0.4-23.1C976.1,492.4,975.3,489.5,973.5,490.1L973.5,490.1z" style="fill:#161616;"/>
			</g>
		</g>
		<g id="XMLID_1595_">
			<g id="XMLID_1667_">
				<path id="XMLID_1672_" d="M1006.3,491.8c3.2,10.9,5.5,21.9,7.1,33.2c0.3,1.9,3.2,1.1,2.9-0.8
					c-1.6-11.2-4-22.3-7.1-33.2C1008.7,489.2,1005.8,490,1006.3,491.8L1006.3,491.8z" style="fill:#161616;"/>
			</g>
		</g>
		<g id="XMLID_1604_">
			<g id="XMLID_1675_">
				<path id="XMLID_1680_" d="M979,476c-2.7-11.8-4.6-23.8-5.6-35.9c-0.2-2.9-0.4-5.8-0.6-8.7c-0.1-2.4-1-6.4,0.5-8.5
					c1.5-2,5.8-3.9,7.9-5.2c2.4-1.5,4.8-3.1,7.2-4.6c19.6-12.2,40-23.1,60.3-34c-0.7-0.3-1.5-0.6-2.2-0.9c3.9,14,7.1,28.1,9.6,42.5
					c0.3,1.9,3.2,1.1,2.9-0.8c-2.5-14.3-5.7-28.5-9.6-42.5c-0.3-1-1.4-1.4-2.2-0.9c-22.3,11.9-44.6,23.9-65.9,37.5
					c-2.7,1.7-5.3,3.4-7.9,5.2c-1.2,0.8-3.2,1.6-3.8,3c-0.9,1.9,0.1,6,0.2,8.1c0.1,2.9,0.3,5.8,0.6,8.7c1,12.7,3,25.2,5.8,37.6
					C976.6,478.7,979.5,477.9,979,476L979,476z" style="fill:#161616;"/>
			</g>
		</g>
	</g>
	<g id="head_1_">
		<path id="XMLID_1328_" d="M941.3,173.6c-8.2,4.9-13.6,8.3-17.7,15.1c-5.6,9.2-5.2,18.8-4.8,23.3
			c-3.6,9.8-7.2,19.6-10.8,29.4c4,0,8.1,0,12.1,0c0,4,0.4,10.3,3,17.3c1.6,4.3,6.5,16.7,19.9,23.8c11.7,6.1,22.9,4.6,26.8,3.9
			c1,5.8,2,11.5,3,17.3c4.5-0.2,11-1.1,18.2-4.3c21.3-9.5,28.9-31.2,31.1-37.6c7.8-22.4,2-41.7,0-48c-4.6-14.7-12.4-24-17.3-29.8
			c-9.9-11.7-18.3-21.6-31.1-22.9C963.8,160.1,956,164.8,941.3,173.6z" style="fill:#FFFFFF;"/>
		<path id="XMLID_1304_" d="M918.2,212.1c4.1-8.8,7.5-15.4,7.9-16.2c5.9-11,30.9-28.9,33.3-30.6
			c3-4.6,5.5-9.9,3.5-12.9c-3.8-5.7-23.5-2-36.8,7.9c-1.7,1.2-23.5,18.1-18.8,39.1c1.7,7.6,6.3,12.9,9.4,15.9
			C917.1,214.5,917.6,213.4,918.2,212.1z" style="fill:#1C1C1C;"/>
		<path id="XMLID_1312_" d="M947.1,159.7c-3.3,6.8-1.4,14,0.6,21.5c0.4,1.4,6.2,22.1,25.9,32.7
			c5.7,3,13.6,7.3,20.9,4.4c3.8-1.5,5-4.1,8.2-3.8c5.3,0.4,10,7.1,10.9,13.5c0.1,0.7,1.2,10-4.7,13.8c-3.8,2.5-8.8,1.5-9.2,1.4
			c-2.9-0.6-3.4-1.9-5.5-2c-1-0.1-3.8,0.5-9.4,6.5c-9.6,10.2-12.2,25-12.9,30.9c1.7-2.8,3.3-5.7,5-8.5c-1.3,4.4-2.7,11.9-1.5,20.9
			c0.5,3.3,2.6,18.9,14.8,29.3c16.7,14.1,44.9,12.5,60.1-2.2c10.3-9.9,11.9-23,12.5-28.1c2.4-18.8-7.3-20.5-13.9-55.8
			c-1.9-10.3-3.9-20.3-8.3-36c-1.1-4-2.8-8.6-5.6-14.3c-6.3-13.1-12.3-25.2-25.3-32.7C988.3,138.8,955,143.2,947.1,159.7z" style="fill:#1C1C1C;"/>
		<path id="XMLID_1320_" d="M930.9,274.8c-1.6,3.7-3.6,9.7-3.9,17.3c-0.3,7.2-0.7,15.6,4.8,22.1
			c6.3,7.5,19.9,11.5,30.3,4.8c7.4-4.8,11.3-14,9.9-23.3c-0.6-2.9-1.2-5.8-1.7-8.6c-4.2,0.5-10.1,0.6-16.9-0.9
			C942.4,283.6,934.8,278.1,930.9,274.8z" style="fill:#1C1C1C;"/>
		<path id="XMLID_1336_" d="M959.2,202.8c4.8,8,8.4,15.2,11.1,21c5.5,12,8.3,18.2,8.1,24.7c-0.2,6.1-2,7.4-5.5,21.8
			c-1.6,6.7-2.7,12.2-3.3,15.9c2-2.1,3.9-4.2,5.9-6.3c-0.5,3.9-0.9,10.3,1.1,17.7c0.4,1.5,6.1,21.1,25.1,29.5
			c17.2,7.6,38.9,3.2,40.2-2.9c0.6-3.2-4.5-5.1-10.7-11.1c-16.1-15.3-25.9-44.1-17.7-64.1c5-12.1,13-12.4,14.7-24
			c2.1-13.8-7.5-25.8-11.1-30.2c-20.7-26-58.8-24.6-65.3-24.3c-2,1.8-3.9,3.7-5.9,5.5c1.1,3.8,2.7,8,4.8,12.5
			C953.4,194.2,956.4,199,959.2,202.8z" style="opacity:6.000000e-002;fill:#606060;"/>
		<path id="XMLID_1345_" d="M908.8,241c5-1.4,9.1-1.9,12-2.2c4.7-0.4,6.1,0.1,6.5,0.9c0.5,1-0.3,2.4-1.9,4.9
			c-1.1,1.9-2.2,3.3-3.1,4.3c-0.5-2-1-3.9-1.5-5.9C916.8,242.4,912.8,241.7,908.8,241z" style="opacity:0.13;fill:#606060;"/>
		<g id="XMLID_1_">
			<g id="XMLID_1273_">
				<path id="XMLID_1278_" d="M918.6,211c-3.9,10.4-7.8,20.7-11.9,31c-0.3,0.8,0.5,2,1.4,1.9c4.1-0.5,8.1-0.7,12.2-0.8
					c1.9,0,1.9-3,0-3c-4.1,0-8.2,0.3-12.2,0.8c0.5,0.6,1,1.3,1.4,1.9c4-10.3,8-20.6,11.9-31C922.2,210,919.3,209.2,918.6,211
					L918.6,211z" style="fill:#161616;"/>
			</g>
		</g>
		<g id="XMLID_743_">
			<g id="XMLID_1282_">
				<path id="XMLID_1286_" d="M919.8,242.3c0.8,13.1,5.2,28.5,15.5,37.3c9.5,8.1,22.7,9.8,34.7,9c1.9-0.1,1.9-3.1,0-3
					c-11.2,0.7-23.7-0.6-32.6-8.1c-9.8-8.2-13.9-22.9-14.6-35.2C922.7,240.4,919.7,240.4,919.8,242.3L919.8,242.3z" style="fill:#161616;"/>
			</g>
		</g>
		<g id="XMLID_749_">
			<g id="XMLID_1290_">
				<path id="XMLID_1294_" d="M968.7,288.3c2.3,4.6,3.2,9.6,3,14.7c-0.1,1.9,2.9,1.9,3,0c0.3-5.7-0.9-11.1-3.4-16.2
					C970.5,285,967.9,286.6,968.7,288.3L968.7,288.3z" style="fill:#161616;"/>
			</g>
		</g>
		<g id="XMLID_755_">
			<g id="XMLID_1298_">
				<path id="XMLID_1303_" d="M995.6,219.3c6.7-9.5,16.7,4,16.6,11c-0.1,8.7-9,15-16.7,9.8c-1.6-1.1-3.1,1.5-1.5,2.6
					c10.6,7.3,22.7-3.3,21-14.9c-1.4-9.7-14.3-20.9-22-10C991.9,219.4,994.5,220.9,995.6,219.3L995.6,219.3z" style="fill:#161616;"/>
			</g>
		</g>
		<g id="XMLID_761_">
			<g id="XMLID_1306_">
				<path id="XMLID_1311_" d="M936.8,206.6c-0.1,1.9,0,3.9,0.3,5.8c0.2,1.6,0.4,3.6,1.2,5c1.1,1.8,3.9,1.1,3.4-1.1
					c-0.5-1.9-3.3-1.1-2.9,0.8c0,0.1,0,0.1,0,0.2c0.1-0.5,0.3-1,0.4-1.5c0.1-0.1,0.2-0.1,0.3-0.2c0.5,0.1,1,0.3,1.5,0.4
					c-0.5-0.4-0.8-3.2-0.9-4.2c-0.2-1.7-0.3-3.5-0.2-5.2C939.8,204.7,936.8,204.7,936.8,206.6L936.8,206.6z" style="fill:#161616;"/>
			</g>
		</g>
		<g id="XMLID_767_">
			<g id="XMLID_1314_">
				<path id="XMLID_1319_" d="M937.6,207.7c1.3,2.9,1.7,6.1,1.5,9.3c-0.1,1.9,2.9,1.9,3,0c0.3-3.8-0.4-7.3-1.9-10.8
					C939.5,204.4,936.9,205.9,937.6,207.7L937.6,207.7z" style="fill:#161616;"/>
			</g>
		</g>
		<g id="XMLID_768_">
			<g id="XMLID_1322_">
				<path id="XMLID_1327_" d="M933.1,198.2c4.4-7,12.4-1.8,15,3.7c0.8,1.7,3.4,0.2,2.6-1.5c-3.6-7.7-14.7-12.5-20.1-3.7
					C929.5,198.4,932.1,199.9,933.1,198.2L933.1,198.2z" style="fill:#161616;"/>
			</g>
		</g>
		<g id="XMLID_771_">
			<g id="XMLID_1331_">
				<path id="XMLID_1335_" d="M924.1,256.8c6,2,12.6-0.6,15.7-6.1c0.9-1.7-1.6-3.2-2.6-1.5c-2.5,4.4-7.6,6.3-12.3,4.7
					C923,253.3,922.2,256.2,924.1,256.8L924.1,256.8z" style="fill:#161616;"/>
			</g>
		</g>
		<g id="XMLID_1271_">
			<g id="XMLID_1339_">
				<path id="XMLID_1343_" d="M935.5,250.2c1.9-0.2,3.8,1.3,3.9,3.3c0.1,1.9,3.1,1.9,3,0c-0.2-3.5-3.3-6.6-6.9-6.3
					C933.6,247.3,933.6,250.3,935.5,250.2L935.5,250.2z" style="fill:#161616;"/>
			</g>
		</g>
		<g id="XMLID_1279_">
			<g id="XMLID_1347_">
				<path id="XMLID_1352_" d="M942.7,227.6c1.9,0,1.9-3,0-3C940.7,224.6,940.7,227.6,942.7,227.6L942.7,227.6z" style="fill:#161616;"/>
			</g>
		</g>
		<g id="XMLID_1287_">
			<g id="XMLID_1355_">
				<path id="XMLID_1361_" d="M950.6,221.6c1.9,0,1.9-3,0-3C948.7,218.6,948.7,221.6,950.6,221.6L950.6,221.6z" style="fill:#161616;"/>
			</g>
		</g>
		<g id="XMLID_1296_">
			<g id="XMLID_1364_">
				<path id="XMLID_1371_" d="M947.9,226.5c0,0.1,0,0.3,0,0.4c0,0.8,0.7,1.5,1.5,1.5c0.8,0,1.5-0.7,1.5-1.5
					c0-0.1,0-0.3,0-0.4c0-0.8-0.7-1.5-1.5-1.5C948.6,225,947.9,225.6,947.9,226.5L947.9,226.5z" style="fill:#161616;"/>
			</g>
		</g>
	</g>
</g>
<g id="guy">
	<g id="leg_right">
		<path id="XMLID_2270_" d="M588.4,1010.8c-0.9,24.9-1.9,49.8-2.8,74.7c77.8,13.2,117.8,15.7,120.1,7.6c2-7.1-24.5-22.2-79.5-45.4
			c6.3-50.5,5.4-77-2.8-79.5C616.6,966.2,605,980.4,588.4,1010.8z"/>
		<path id="XMLID_2272_" d="M667.8,577.6c0,8.5,0,21.3,0,36.9c0.1,61.1,0.8,88,0.9,110.7c0.4,83.2-7.2,151.6-11.4,188.3
			c-3.9,34.2-8.1,62.5-11.4,82.3c-3.4,3.5-9.4,8.6-18,11.9c-4.1,1.6-7.4,2.2-9.7,2.7c-3.6,0.7-17.6,3-34.7-2.2
			c-4.4-1.3-10.4-3.6-17-7.6c4.9-27.7,10.8-64.1,16.1-106.9c4.3-35.1,11.3-99.3,14.2-180.7c1.4-41.2,2-91,0-147.6
			C620.5,569.4,644.2,573.5,667.8,577.6z" style="fill:#FFFFFF;"/>
		<path id="XMLID_2279_" d="M599.7,663.7c5-12.5,11.4-26.4,15.1-25.5c5.5,1.3,2.2,34,0,58.7c-5,56-5.7,112.3-9.5,168.4
			c-2.3,34.9-4.9,84.4-5.7,144.7c-11-2.8-22.1-5.7-33.1-8.5c11.2-63.7,20.5-132.9,26.5-207.2C596.7,748.9,598.8,705.3,599.7,663.7z" style="opacity:9.000000e-002;fill:#606060;"/>
		<g id="XMLID_2252_">
			<g id="XMLID_2293_">
				<path id="XMLID_2297_" d="M665.5,588.9c4.5,105.7,1.3,211.7-9.5,316.9c-3.1,29.9-6.8,59.8-11.1,89.6
					c-0.3,1.9,2.6,2.7,2.9,0.8c15.1-104.8,22.8-210.7,22.6-316.6c0-30.2-0.7-60.4-2-90.6C668.4,587,665.4,586.9,665.5,588.9
					L665.5,588.9z" style="fill:#161616;"/>
			</g>
		</g>
		<g id="XMLID_2254_">
			<g id="XMLID_2301_">
				<path id="XMLID_2305_" d="M598.7,664.6c-3.3,87.4-10.5,174.7-21.6,261.4c-3.2,25.3-6.8,50.6-10.7,75.8
					c-0.3,1.9,2.6,2.7,2.9,0.8c13.5-87.2,23.1-175,28.7-263.1c1.6-24.9,2.8-49.9,3.8-74.9C601.8,662.7,598.8,662.7,598.7,664.6
					L598.7,664.6z" style="fill:#161616;"/>
			</g>
		</g>
		<g id="XMLID_2262_">
			<g id="XMLID_2309_">
				<path id="XMLID_2314_" d="M567.7,1004.2c13.7,6.2,28.6,9.1,43.6,7.9c12.5-1,27.2-4,34.9-14.8
					c1.1-1.6-1.5-3.1-2.6-1.5c-7.6,10.6-23.6,13-35.7,13.5c-13.3,0.5-26.5-2.2-38.7-7.7C567.5,1000.8,566,1003.4,567.7,1004.2
					L567.7,1004.2z" style="fill:#161616;"/>
			</g>
		</g>
	</g>
	<g id="leg_left">
		<path id="XMLID_2248_" d="M476.8,984.3c-9.5,30.3-18.9,60.5-28.4,90.8c74.8,22,113.6,29.6,116.4,22.7c2.3-5.7-20.4-21.5-68.1-47.3
			c24.4-32.4,30.8-61.6,20.8-70.9C507.3,970.2,481.6,982,476.8,984.3z"/>
		<path id="XMLID_2241_" d="M528.8,582.3c-0.5,2.2-1.3,9.7-2.8,24.6c-2.4,23.2-3.7,40.4-3.8,41.6
			c-5,65.8-14.2,123-14.2,123c-10.2,63.3-24.3,112.9-34.1,146.6c-7.2,25-13.9,45.8-18.9,60.5c8.3,10.4,16.8,16.9,22.7,20.8
			c9,5.9,19.7,13,34.1,12.3c5.7-0.3,10.2-1.7,13.2-2.8c4.3-12.5,11.7-34.2,19.9-61.5c15.1-50.3,27.6-107.4,52-219.5
			c1.1-5,15.1-69.5,16.1-73.8c8.8-10.4,17.7-20.8,26.5-31.2c14.9-34.8,14.4-70.2-2.8-85.1C607.9,512.9,536.9,548.2,528.8,582.3z" style="fill:#FFFFFF;"/>
		<path id="XMLID_2249_" d="M527.8,602.2c1.2,8.7,2.7,21.8,3.8,37.8c4.8,74.1-7,126.5-18,185.4
			c-7.6,40.6-17.9,100.6-27.4,176.9c-10.4-7.9-20.8-15.8-31.2-23.6c5.3-15.7,12.9-38.8,20.8-67.2c25.6-91.6,35.6-166.5,42.6-220.4
			C521.2,668.9,524.8,638.6,527.8,602.2z" style="opacity:0.11;fill:#606060;"/>
		<g id="XMLID_2224_">
			<g id="XMLID_2256_">
				<path id="XMLID_2261_" d="M524.5,589c-3.4,102.9-18.6,205.4-45.3,304.8c-7.5,28.1-16,55.9-25.4,83.5
					c-0.6,1.8,2.3,2.6,2.9,0.8c33.1-97.8,55-199.3,65.1-302c2.8-29,4.7-58,5.7-87.1C527.6,587,524.6,587,524.5,589L524.5,589z" style="fill:#161616;"/>
			</g>
		</g>
		<g id="XMLID_2232_">
			<g id="XMLID_2265_">
				<path id="XMLID_2269_" d="M634.5,625.9c-7.5,9.4-15,18.8-22.5,28.2c-1.2,1.5,0.9,3.6,2.1,2.1
					c7.5-9.4,15-18.8,22.5-28.2C637.8,626.5,635.7,624.4,634.5,625.9L634.5,625.9z" style="fill:#161616;"/>
			</g>
		</g>
		<g id="XMLID_2233_">
			<g id="XMLID_2273_">
				<path id="XMLID_2277_" d="M612.3,652.6c-18.2,93.6-37.7,187-64.2,278.7c-7.5,26-15.6,51.8-24.3,77.4
					c-0.6,1.8,2.3,2.6,2.9,0.8c30.7-90.3,53.1-183.1,72.5-276.5c5.5-26.5,10.8-53.1,15.9-79.6C615.5,651.6,612.6,650.7,612.3,652.6
					L612.3,652.6z" style="fill:#161616;"/>
			</g>
		</g>
		<g id="XMLID_2240_">
			<g id="XMLID_2281_">
				<path id="XMLID_2286_" d="M454.5,979.3c4.1,5.8,9.9,10.1,15.4,14.6c5.2,4.2,10.6,8.2,16.4,11.6
					c11.5,6.7,26.2,11.4,39.2,6.3c1.8-0.7,1-3.6-0.8-2.9c-12.8,5.1-27.1,0-38.3-6.8c-5.5-3.3-10.7-7.2-15.7-11.3
					c-4.8-3.9-10-7.8-13.7-12.9C456,976.3,453.4,977.8,454.5,979.3L454.5,979.3z" style="fill:#161616;"/>
			</g>
		</g>
	</g>
	<g id="arm_right">
		<path id="XMLID_2183_" d="M644.7,270.1c5.1-1.1,11.9,7.5,15.6,12.1c5.7,7.1,8.2,14.2,9.8,19.6
			c5.3,17.6,6.4,35.1,6.3,48.4c0.9,6,3.1,15.3,8.6,25.4c1.9,3.4,10.8,18.9,30,30c12,6.9,23.4,9.4,31.1,10.4c-1.5,1.5-3,3-4.5,4.5
			c4.3,0.4,7.6,1.3,9.9,2c5.1,1.6,7.8,2.4,8.7,2.8c1.7,0.7,3.1,1.4,4,1.9c-0.6,0.7-1.9,2.6-1.9,5.3c0,3,1.6,6,4.1,7.4
			c2.4,1.4,5.9,0.7,12.7-0.7c1.3-0.3,2.4-0.5,3.2-0.7c1.6-0.2,4.2-0.2,6.8,1c4.1,1.9,5.7,5.8,7.9,10.7c1.6,3.6,3.8,8.5,2.8,14.6
			c-0.3,1.8-0.9,5.2-3.6,7.9c-0.6,0.6-1,0.9-5.9,3.6c-5.7,3.1-6.8,3.5-7.9,4c-3.6,1.3-5.4,2-7.5,1.2c-2-0.7-4-2.7-4-4.7
			c0.1-2.4,3.1-2.8,3.2-4.7c0.1-2.4-4.2-2.9-9.1-7.5c-3.4-3.2-2.8-4.2-6.3-7.1c-1.3-1.1-3.7-3-7.1-4.3c-1.6-0.7-2.6-0.8-5.1-2
			c-3.3-1.5-4.1-2.3-4.6-3c-1-1.5-0.4-2.3-1.3-3.3c-1.2-1.2-3.1-0.8-5.4-0.8c-2,0-4.7-0.4-8-2c-1.3,9.2-2.6,18.4-4,27.7
			c-5.1-1.2-12.5-3.4-20.5-7.9c-10.9-6.2-22.4-16.3-37.5-45c-11.2-21.2-25.4-48.3-28.8-87.3C634.1,305.4,635.6,272.1,644.7,270.1z" style="fill:#FFFFFF;"/>
		<path id="XMLID_2191_" d="M645.7,271c0.2,6.2,0.8,14.2,2,23.6c0.6,4.5,1.8,12.5,4.5,24.6
			c4.7,20.5,10.4,37.6,14.1,48.2c12.4,35,18.7,52.9,31.4,64.4c9.5,8.6,19.3,13.4,25.9,16c0.1,6.9,0.2,13.8,0.3,20.7
			c-2.9,0.2-7.3,0.1-12.2-1.5c-7.6-2.4-12.3-7-15.4-10.2c-13.2-13.4-19.8-20.1-26.2-30.6c-26.3-42.9-30-91.4-30-91.4
			C639.1,319.9,639.2,297.6,645.7,271z" style="opacity:9.000000e-002;fill:#606060;"/>
		<path id="XMLID_2199_" d="M743.3,421.3c0.6,0.5-1.9,3.3-3.5,7.6c-2.2,5.8-1.7,11.4-0.9,15.4
			c-3.8-0.8-7.6-1.6-11.4-2.3c0.8-3.4,2.5-8.7,6.7-13.7C737.8,424,742.6,420.6,743.3,421.3z" style="opacity:8.000000e-002;fill:#606060;"/>
		<path id="XMLID_2207_" d="M776.2,462.9c4-2.5,4.4-3.1,6.1-4.1c2.6-1.5,7.8-3.7,16.9-2.6c0.4,2.8,0.8,8.5-2,13.1
			c-1,1.7-2.7,3.6-2.9,3.8c-0.9,1.1-2.7,2.9-5.2,4.7c-1.9,1.3-4.9,3.3-9,3.5c-2.7,0.1-7-0.4-7.6-2.3c-0.5-1.8,2.7-3.2,2.3-5.5
			c-0.4-2.8-5.5-3.1-5.5-5.2C769.2,466.8,771.3,466,776.2,462.9z" style="opacity:9.000000e-002;fill:#606060;"/>
		<g id="XMLID_2050_">
			<g id="XMLID_2108_">
				<path id="XMLID_2112_" d="M640.9,270.2c7,4,14.2,8,19.8,14c6.5,6.9,8.8,15.7,10.2,24.8c3.1,19.8,4.5,39.9,4.8,60
					c0,1.9,3,1.9,3,0c-0.3-21.3-1.6-43-5.4-64c-1.5-8.3-4.2-16-9.9-22.3c-5.8-6.4-13.5-10.8-20.9-15
					C640.7,266.7,639.2,269.3,640.9,270.2L640.9,270.2z" style="fill:#161616;"/>
			</g>
		</g>
		<g id="XMLID_2060_">
			<g id="XMLID_2116_">
				<path id="XMLID_2121_" d="M675.2,332c-2.6,37.9,21.8,72.6,58.3,83.1c1.9,0.5,2.7-2.4,0.8-2.9
					c-35.3-10.2-58.6-43.6-56.1-80.2C678.4,330.1,675.4,330.1,675.2,332L675.2,332z" style="fill:#161616;"/>
			</g>
		</g>
		<g id="XMLID_2068_">
			<g id="XMLID_2124_">
				<path id="XMLID_2133_" d="M732.6,415c4.6,0.4,8.8,1.4,13.1,3.2c-0.1-0.9-0.2-1.8-0.4-2.7
					c-18.6,10.6-23.9,30.5-22.1,50.7c0.2,1.9,3.2,1.9,3,0c-1.7-19.2,2.9-38,20.6-48.1c1.2-0.7,0.8-2.3-0.4-2.7
					c-4.5-1.9-9.1-3-13.9-3.4C730.7,411.8,730.7,414.8,732.6,415L732.6,415z" style="fill:#161616;"/>
			</g>
		</g>
		<g id="XMLID_2077_">
			<g id="XMLID_2136_">
				<path id="XMLID_2141_" d="M665.5,421.7c6.3,11.9,14.6,22.6,24.6,31.6c9.5,8.5,21,17.2,34.4,16.7
					c1.9-0.1,1.9-3.1,0-3c-13.4,0.5-25.4-9.3-34.6-18c-8.8-8.3-16.1-18.1-21.8-28.8C667.2,418.5,664.6,420,665.5,421.7L665.5,421.7z
					" style="fill:#161616;"/>
			</g>
		</g>
		<g id="XMLID_2087_">
			<g id="XMLID_2144_">
				<path id="XMLID_2149_" d="M742.6,421c7.6,2.1,15.2,4.2,22.7,6.3c1.9,0.5,2.7-2.4,0.8-2.9
					c-7.6-2.1-15.2-4.2-22.7-6.3C741.5,417.6,740.7,420.5,742.6,421L742.6,421z" style="fill:#161616;"/>
			</g>
		</g>
		<g id="XMLID_2088_">
			<g id="XMLID_2153_">
				<path id="XMLID_2157_" d="M783,438.9c6.6,0.6,11.2,5.9,13.1,12c0.9,2.9,1.2,6,1.3,9c0,1-0.1,13.3-3,11.2
					c-1.6-1.1-3.1,1.5-1.5,2.6c9,6.3,7.6-15.4,7.2-18.6c-1.2-9.4-7-18.4-17.1-19.3C781,435.7,781.1,438.7,783,438.9L783,438.9z" style="fill:#161616;"/>
			</g>
		</g>
		<g id="XMLID_2095_">
			<g id="XMLID_2161_">
				<path id="XMLID_2165_" d="M790.7,458.4c1.1,6.3,2.1,13.5-3.6,17.8c-1.5,1.2,0.6,3.3,2.1,2.1
					c6.5-5.1,5.6-13.5,4.4-20.8C793.3,455.7,790.4,456.5,790.7,458.4L790.7,458.4z" style="fill:#161616;"/>
			</g>
		</g>
		<g id="XMLID_2103_">
			<g id="XMLID_2169_">
				<path id="XMLID_2174_" d="M783.2,463c1.1,5.3,2.3,12.2-3.1,15.6c-1.6,1-0.1,3.6,1.5,2.6c6.7-4.2,5.9-12.3,4.5-19
					C785.7,460.4,782.8,461.2,783.2,463L783.2,463z" style="fill:#161616;"/>
			</g>
		</g>
		<g id="XMLID_2105_">
			<g id="XMLID_2177_">
				<path id="XMLID_2182_" d="M776.6,464.3c1.7,5.6,1.2,11.2-1.5,16.3c-0.9,1.7,1.7,3.2,2.6,1.5
					c3.1-5.8,3.7-12.3,1.8-18.6C779,461.7,776.1,462.5,776.6,464.3L776.6,464.3z" style="fill:#161616;"/>
			</g>
		</g>
		<g id="XMLID_2114_">
			<g id="XMLID_2185_">
				<path id="XMLID_2190_" d="M727,444c4.2,1,8.5,2,12.7,3c1.9,0.4,2.7-2.5,0.8-2.9c-4.2-1-8.5-2-12.7-3
					C726,440.6,725.2,443.5,727,444L727,444z" style="fill:#161616;"/>
			</g>
		</g>
		<g id="XMLID_2122_">
			<g id="XMLID_2193_">
				<path id="XMLID_2198_" d="M725.3,469.8c5.6-7,9.4-14.8,11.3-23.5c0.4-1.9-2.5-2.7-2.9-0.8
					c-1.8,8.2-5.3,15.6-10.5,22.2C722,469.1,724.1,471.3,725.3,469.8L725.3,469.8z" style="fill:#161616;"/>
			</g>
		</g>
		<g id="XMLID_2134_">
			<g id="XMLID_2202_">
				<path id="XMLID_2206_" d="M725.1,444.1c0.6,6.2,0.4,12.3-0.7,18.4c-0.4,1.9,2.3,2.7,2.9,0.8
					c1.9-6.2,4-12.4,6.2-18.6c0.6-1.5-1.5-2.3-2.5-1.5c-0.6,0-1.2-0.1-1.8-0.1c-0.1,0.9-0.2,1.8-0.4,2.7c0.9-0.2,3-0.1,3.3,1.1
					c0.2,0.6-1.5,2.8-1.7,3.3c-1,2-2.1,3.9-3.1,5.9c-0.9,1.7,1.5,3,2.6,1.5c3-4,4.3-8.6,4.1-13.6c-0.1-1.5-2-2-2.8-0.8
					c-3,4.6-4.9,9.6-5.7,15.1c1,0.1,2,0.3,2.9,0.4c0-4,0.7-7.8,2.3-11.5c-1-0.1-2-0.3-2.9-0.4c-0.4,3.4-1.1,6.8-1.9,10.1
					c-0.4,1.9,2.4,2.7,2.9,0.8c0.9-3.6,1.5-7.3,2-10.9c0.2-1.8-2.4-1.8-2.9-0.4c-1.7,4-2.4,8-2.4,12.3c0,1.6,2.7,2.1,2.9,0.4
					c0.7-5.2,2.5-9.9,5.4-14.3c-0.9-0.3-1.9-0.5-2.8-0.8c0.2,4.5-1.1,8.5-3.7,12.1c0.9,0.5,1.7,1,2.6,1.5c1.4-2.6,2.8-5.2,4.1-7.9
					c0.7-1.4,1.6-2.6,1.3-4.2c-0.7-3.5-4.6-3.3-7.3-2.6c-1.4,0.4-1.3,2-0.4,2.7c1.8,1.4,3.8,1.1,5.5-0.4c-0.8-0.5-1.7-1-2.5-1.5
					c-2.2,6.1-4.3,12.3-6.2,18.6c1,0.3,1.9,0.5,2.9,0.8c1.2-6.4,1.5-12.8,0.8-19.2C727.9,442.2,724.9,442.2,725.1,444.1L725.1,444.1
					z" style="fill:#161616;"/>
			</g>
		</g>
	</g>
	<g id="torso">
		<path id="XMLID_1986_" d="M536.5,276.3c7.5,30.7,13.8,65.9,17,105.1c6.7,81.5-2.6,151.3-14.2,203.4
			c11.4,5.2,32.7,13.1,60.2,12.5c35.3-0.8,60.8-15.2,71.6-22.2c-2.8-43.2-7.4-89.2-14.2-137.5c-9.1-64.4-21-123.9-34.1-177.9
			c-4.3-2.5-25.3-13.8-51.1-6.8C551.8,258.3,540.3,271.4,536.5,276.3z" style="fill:#7F7F7F;"/>
		<path id="XMLID_1970_" d="M563.8,244.4c-1.5,0.1-3.7,0.3-6.3,1.1c-6.8,2.1-10.8,6.6-13.1,9.1
			c-4.4,4.7-10.7,10.8-20.5,18.8c-4.8,36.7-5.4,64.3-5.1,83c0.1,7.7,0.6,21.1,0.6,42.1c0,13.5,0,28.4-0.6,41.5
			c-1.1,25.4-4.5,44.4-11.4,81.3c-3.1,16.6-7.5,38.9-13.6,65.4c10.8,6.1,20.3,10,27.3,12.5c13.4,4.7,25.6,8.9,40.9,6.8
			c5.1-0.7,9.3-1.9,11.9-2.8c1.9-10.2,4.5-25.5,6.8-44.3c7.4-60,5.9-107.3,4.5-143.2c-0.7-18.8-1.7-44.4-5.7-78.4
			C575.4,300.3,569.3,268.9,563.8,244.4z" style="fill:#FFFFFF;"/>
		<path id="XMLID_1978_" d="M593.3,250.7c3.4,2.2,8.2,5.8,12.5,11.4c9.9,13,10.1,28,10.2,34.1
			c0.8,31.7,8.7,62.8,11.4,94.3c1.7,19.7,0.8,7,6.3,67.1c4.8,52,5.7,64.1,6.3,71.6c1.4,18.4,2.8,41.4,4,68.2c5,0.4,10.8,0.6,17,0
			c8.2-0.7,16.3-1.4,25-6.3c5.7-3.2,9.8-7.1,12.5-10.2c-0.7-11.8-2.1-30.3-4.5-52.8c-2.7-24.7-8-65.9-32.4-180.7
			c-4.1-19.2-9.8-45.9-17-77.9c-11.4-6.6-20.1-12.3-26.1-16.5c-6.9-4.8-12.9-9.3-18.8-7.4C596.5,246.5,594.5,248.8,593.3,250.7z" style="fill:#FFFFFF;"/>
		<path id="XMLID_1994_" d="M518.9,350.1c1.1,6.8,2.9,17.7,4.5,31.3c7.7,62.2,4.1,95.4,8,167.6
			c0.7,12.6,1.9,31.5,4,54.6c-5.3-1.8-10.8-3.9-16.5-6.3c-9.5-4-18-8.3-25.6-12.5c2.9-10.7,6.6-25.3,10.2-42.6
			c9.6-45.9,13-82.3,14.2-98.9C519.7,417.2,520.7,385.8,518.9,350.1z" style="opacity:8.000000e-002;fill:#606060;"/>
		<path id="XMLID_2002_" d="M595,252.4c-4.8,2,10.4,39.5,18.2,94.9c1.8,13,3.2,26.7,4.5,58.5
			c2.9,69.5,2.2,141.6,1.1,189.2c8-1.9,15.9-3.8,23.9-5.7c-0.2-8.3-0.5-20.5-1.1-35.2c-3.3-79.9-10.9-142.1-17-192.1
			c-2.8-22.4-6.7-52-11.9-86.9C600.9,255.1,596.7,251.7,595,252.4z" style="opacity:0.1;fill:#606060;"/>
		<path id="XMLID_2013_" d="M632.5,274.5c0.6,4.4,1.4,10.6,2.3,18.2c2.6,23,3.7,40.6,4.5,55.1
			c1.1,19.9,1.6,35.3,1.7,39.5c0,0.3,0,0.7,0,0.8c1.2,44.7,7.2,209.3,4.8,209.5c-1.2,0.1-5.3-43.4-15.6-187.3
			c0.2-10.4,0.4-20.8,0.6-31.3c-0.4-39.8-0.3-67.6,0.9-76.2c0.3-2.1,1.1-7-1.2-12.1c-1.8-4.1-3.6-3.9-5.5-8.4
			c-2.1-5.1-1.8-10.3-1.7-12.7c0.2-3.8,0.8-4.3,0.6-6.9c-0.4-4.1-2.4-7.2-4-9.2c3.8,2.4,7.7,4.8,11.5,7.2
			C631.8,265.4,632.2,270,632.5,274.5z" style="opacity:0.14;fill:#606060;"/>
		<g id="XMLID_1841_">
			<g id="XMLID_1925_">
				<path id="XMLID_1930_" d="M566,248c-2-8.3-13.7-1.6-17.3,1.3c-9.3,7.5-18.2,15.7-26.9,23.8
					c-1.4,1.3,0.7,3.4,2.1,2.1c5.6-5.3,11.3-10.4,17.2-15.5c2.3-2,20.3-18.5,22.1-10.9C563.6,250.7,566.4,249.9,566,248L566,248z" style="fill:#161616;"/>
			</g>
		</g>
		<g id="XMLID_1887_">
			<g id="XMLID_1933_">
				<path id="XMLID_1944_" d="M517,353.2c2.1,40.2,1.2,80.5-2.9,120.6c-0.2,1.9,2.8,1.9,3,0c4-40.1,5-80.4,2.9-120.6
					C519.9,351.3,516.9,351.3,517,353.2L517,353.2z" style="fill:#161616;"/>
			</g>
		</g>
		<g id="XMLID_1895_">
			<g id="XMLID_1947_">
				<path id="XMLID_1952_" d="M562,243.2c-9.2,2.8-15.2,12.3-14.1,21.9c0.7,5.9,4.7,9.6,7.6,14.5
					c4.3,7,0.1,16.3-0.2,24.1c-0.5,16.3,4.3,32.2,8.7,47.7c4.6,16,9.5,31.8,13.4,48c4.6,18.9,7.7,38.2,7.4,57.7c0,1.9,3,1.9,3,0
					c0.5-39.5-12.7-77-23.2-114.6c-2.8-9.9-5.3-20-6.1-30.3c-0.4-5.5-0.4-11,0.5-16.4c0.6-3.9,2.2-7.8,1.5-11.8
					c-1.3-7.5-8.9-11.8-9.8-19.4c-0.9-8,4.2-16,11.9-18.4C564.7,245.5,563.9,242.6,562,243.2L562,243.2z" style="fill:#161616;"/>
			</g>
		</g>
		<g id="XMLID_1903_">
			<g id="XMLID_1956_">
				<path id="XMLID_1960_" d="M562.3,247.1c18.3,89.2,26.1,180.6,20.3,271.5c-1.7,26.1-4.4,52.1-8.4,78
					c-0.3,1.9,2.6,2.7,2.9,0.8c13.8-91,13.3-183.7,1.1-274.8c-3.4-25.6-7.8-51.1-13-76.4C564.8,244.4,561.9,245.2,562.3,247.1
					L562.3,247.1z" style="fill:#161616;"/>
			</g>
		</g>
		<g id="XMLID_1904_">
			<g id="XMLID_1964_">
				<path id="XMLID_1968_" d="M596.6,247.4c4.1-3.2,12.3,1.2,15.9,3.7c4.7,3.2,8.2,7.7,10.4,13c0.7,1.8,3.6,1,2.9-0.8
					c-2.8-6.7-7.4-12.2-13.6-15.9c-5-2.9-12.6-6.1-17.7-2.1C592.9,246.5,595.1,248.6,596.6,247.4L596.6,247.4z" style="fill:#161616;"/>
			</g>
		</g>
		<g id="XMLID_1911_">
			<g id="XMLID_1972_">
				<path id="XMLID_1977_" d="M593.3,253.7c20.4,10.7,20.7,38.6,23.3,58.5c3,22.8,5.8,45.7,8.4,68.6
					c5.1,45.8,9.4,91.6,12.9,137.6c2,26.2,3.7,52.5,5.1,78.8c0.1,1.9,3.1,1.9,3,0c-5.2-96.3-14.1-192.3-26.7-287.9
					c-2.7-20.4-3.6-47.3-24.4-58.1C593.1,250.2,591.6,252.8,593.3,253.7L593.3,253.7z" style="fill:#161616;"/>
			</g>
		</g>
		<g id="XMLID_1912_">
			<g id="XMLID_1980_">
				<path id="XMLID_1985_" d="M622.7,262.8c1.1,5.5-2,10.9-0.7,16.4c1.2,5.1,5.7,8.6,7.5,13.5
					c2.1,5.8,1.6,12.3,1.5,18.3c-0.1,7-0.2,13.9-0.3,20.9c-0.5,26.8-1.5,53.6-2.9,80.4c-0.1,1.9,2.9,1.9,3,0
					c1.5-27.5,2.5-54.9,3-82.4c0.1-6.6,0.2-13.2,0.3-19.9c0.1-5.5,0.3-11.2-1.2-16.6c-1.4-4.9-4.9-8.1-7.1-12.6
					c-2.8-5.9,1-12.6-0.2-18.8C625.2,260.1,622.3,260.9,622.7,262.8L622.7,262.8z" style="fill:#161616;"/>
			</g>
		</g>
		<g id="XMLID_1920_">
			<g id="XMLID_1988_">
				<path id="XMLID_1993_" d="M618.7,255.9c8.9,4.1,17,9.5,24.2,16.1c1.4,1.3,3.5-0.8,2.1-2.1
					c-7.4-6.8-15.7-12.4-24.8-16.6C618.4,252.5,616.9,255.1,618.7,255.9L618.7,255.9z" style="fill:#161616;"/>
			</g>
		</g>
		<g id="XMLID_1923_">
			<g id="XMLID_1996_">
				<path id="XMLID_2001_" d="M665.3,371.1c15.3,69.3,25.9,139.5,31.6,210.2c0.2,1.9,3.2,1.9,3,0
					c-5.7-71-16.3-141.5-31.7-211C667.7,368.5,664.8,369.3,665.3,371.1L665.3,371.1z" style="fill:#161616;"/>
			</g>
		</g>
		<g id="XMLID_1931_">
			<g id="XMLID_2008_">
				<path id="XMLID_2012_" d="M644.5,598.5c10.7,3,21.5,0.9,31.8-2.6c8.3-2.8,17.9-5.4,23.2-12.9
					c1.1-1.6-1.5-3.1-2.6-1.5c-5,7-15.3,9.6-23.1,12.1c-9.3,3-18.9,4.6-28.5,2C643.4,595.1,642.6,598,644.5,598.5L644.5,598.5z" style="fill:#161616;"/>
			</g>
		</g>
		<g id="XMLID_1945_">
			<g id="XMLID_2016_">
				<path id="XMLID_2020_" d="M514.9,463.1c-5.7,40.3-13.2,80.4-22.5,120c-0.4,1.9,2.5,2.7,2.9,0.8
					c9.3-39.6,16.8-79.7,22.5-120C518.1,462,515.2,461.2,514.9,463.1L514.9,463.1z" style="fill:#161616;"/>
			</g>
		</g>
		<g id="XMLID_1953_">
			<g id="XMLID_2024_">
				<path id="XMLID_2033_" d="M493.1,586.7c8.4,4.5,16.9,8.6,25.7,12.2c8.6,3.5,17.6,7.3,26.8,8.6
					c7.5,1.1,16.6,1,24.1-0.7c6.9-1.5,5.8-8,9-13c1-1.6-1.6-3.1-2.6-1.5c-1.3,2.1-1.8,4.3-2.5,6.7c-1.7,5.3-5.4,5-10.1,5.5
					c-8.3,0.7-16.3,0.8-24.4-1.5c-15.4-4.4-30.4-11.3-44.4-18.9C492.9,583.2,491.4,585.8,493.1,586.7L493.1,586.7z" style="fill:#161616;"/>
			</g>
		</g>
		<path id="XMLID_1961_" d="M562.6,245" style="fill:#FFFFFF;"/>
	</g>
	<g id="arm_left">
		<path id="XMLID_2040_" d="M530.2,269c-6.3,4.2-14.8,10.5-24.1,19.1c-5.8,5.3-10.6,10.4-18.1,19.1
			c-17.4,20.1-26.3,30.4-36.1,46.2c-11.3,18.1-16.9,27.2-19.1,41.1c-2.6,16.8,1,31.4,3,39.6c2.9,11.7,6.7,19.9,10.5,28.1
			c4.6,9.8,12.3,21.2,27.6,43.7c13.3,19.6,18.6,26.5,28.6,32.6c5.7,3.4,10.9,5.4,14.6,6.5c2.2-5.7,4.3-11.4,6.5-17.1
			c1.6,1.7,3.7,4,6,7c4,5.2,5,7.6,6.5,7.5c2.4-0.1,3.9-5.9,5.5-12c7.5-29.2,7.4-33.6,5-35.1c-1.7-1.1-3,0.5-7.5,0
			c-5-0.5-8.9-2.9-11.5-5c2.2-6.6,1.2-10.6,0-13c-2.4-4.7-6.5-4.6-12.5-10.5c-1.3-1.3-1.9-2.1-8-11.5c-6.5-10-9.7-15-10.5-16.6
			c-2.3-4.4-5.3-11.1-7.5-20.1c2-7,4.9-14.9,9-23.1c11.8-23.5,28.1-38.7,39.6-47.7c2.1-9.3,4.1-23.3,2.5-40.1
			C538.6,291,534,277.7,530.2,269z" style="fill:#FFFFFF;"/>
		<path id="XMLID_2042_" d="M526.2,272.5c-3.4,3.8-8.3,9.5-14,16.6c-20.5,25.3-35.4,43.6-44.7,67.2
			c-1.9,4.9-10,26.3-9.5,55.2c0.7,47.7,24,81.1,33.1,93.8c10.9,15.2,22.2,25.9,30.1,32.6c-1.3,2.3-2.7,4.7-4,7
			c-4.2-2.2-10.5-5.8-17.6-11c-24.2-18.1-35.8-40.4-46.7-61.7c-11.9-23.3-17.8-35-19.6-50.7c-2.4-21.6,1.6-47.7,14.6-63.7
			c1-1.3,1.9-2.2,5-6c12.4-15.1,20.4-26.7,22.1-29.1C481.3,313.8,494.7,298.9,526.2,272.5z" style="opacity:8.000000e-002;fill:#606060;"/>
		<g id="XMLID_2015_">
			<g id="XMLID_2044_">
				<path id="XMLID_2049_" d="M524.2,270c-17.5,15.7-33.9,32.6-48.9,50.7c-14,16.9-28.5,34.8-37.4,55
					c-9.1,20.6-8.6,41.4-1.4,62.5c7,20.6,17.3,40.3,29.4,58.4c6.7,10.1,14.2,19.7,22.2,28.7c7.5,8.4,15.5,16.5,26.3,20.4
					c1.8,0.6,2.6-2.3,0.8-2.9c-10.3-3.7-17.9-11.6-25-19.6c-7.1-8-13.7-16.5-19.8-25.3c-11.8-17.1-21.7-35.7-29.1-55.2
					c-4-10.6-7.2-21.8-7.6-33.2c-0.3-11.2,2.3-22.1,6.8-32.3c8.4-19.2,22-36.2,35.2-52.3c15.5-18.9,32.5-36.5,50.7-52.8
					C527.8,270.8,525.6,268.7,524.2,270L524.2,270z" style="fill:#161616;"/>
			</g>
		</g>
		<g id="XMLID_2022_">
			<g id="XMLID_2052_">
				<path id="XMLID_2059_" d="M533.6,351c-22.7,16.7-39,40.8-45.8,68.2c-0.5,1.9,2.4,2.7,2.9,0.8
					c6.6-26.6,22.3-50.2,44.4-66.4C536.7,352.4,535.2,349.8,533.6,351L533.6,351z" style="fill:#161616;"/>
			</g>
		</g>
		<g id="XMLID_2023_">
			<g id="XMLID_2063_">
				<path id="XMLID_2067_" d="M485,412.2c6.3,26.3,21.1,50,41.9,67.3c1.5,1.2,3.6-0.9,2.1-2.1
					c-20.5-17-34.9-40.1-41.2-66C487.4,409.5,484.5,410.3,485,412.2L485,412.2z" style="fill:#161616;"/>
			</g>
		</g>
		<g id="XMLID_2034_">
			<g id="XMLID_2071_">
				<path id="XMLID_2075_" d="M526.7,477.5c0.5,11.4-0.1,22.8-1.8,34c-0.8,5.2-1.8,10.4-3.1,15.6
					c-0.6,2.4-1.2,4.8-1.9,7.2c-0.4,1.4-1.9,8.9-3.6,9.2c0.6,0.2,1.1,0.5,1.7,0.7c-0.1-0.2-0.2-0.3-0.3-0.5c-1-1.6-3.6-0.1-2.6,1.5
					c0.1,0.2,0.2,0.3,0.3,0.5c0.4,0.6,1,0.8,1.7,0.7c3.7-0.6,4.3-6.6,5.2-9.5c2-6.6,3.5-13.2,4.7-20c2.3-13,3.1-26.2,2.6-39.4
					C529.6,475.6,526.6,475.5,526.7,477.5L526.7,477.5z" style="fill:#161616;"/>
			</g>
		</g>
		<g id="XMLID_2035_">
			<g id="XMLID_2079_">
				<path id="XMLID_2086_" d="M527.6,490.8c4.7,3.8,10.2,5.8,16.3,5.9c1.9,0,1.9-3,0-3c-5.2-0.1-10.1-1.7-14.2-5
					C528.2,487.5,526.1,489.6,527.6,490.8L527.6,490.8z" style="fill:#161616;"/>
			</g>
		</g>
		<g id="XMLID_2036_">
			<g id="XMLID_2089_">
				<path id="XMLID_2094_" d="M523.4,531.2c3.2,0.4,4.9,4.2,6.6,6.6c1.6,2.4,3.5,4.6,6.3,5.5c1.8,0.6,2.6-2.3,0.8-2.9
					c-3.3-1.1-4.9-4.8-6.8-7.5c-1.8-2.5-3.8-4.3-6.9-4.7C521.5,528,521.5,531,523.4,531.2L523.4,531.2z" style="fill:#161616;"/>
			</g>
		</g>
		<g id="XMLID_2037_">
			<g id="XMLID_2097_">
				<path id="XMLID_2102_" d="M542,483.3c4.9,11.4,3.1,23.8,0.8,35.5c-2.2,11.4-4.8,22-11.7,31.6
					c-1.1,1.6,1.5,3.1,2.6,1.5c7.6-10.7,10.3-23,12.6-35.8c2.1-11.6,3-23.3-1.8-34.4C543.9,480,541.3,481.5,542,483.3L542,483.3z" style="fill:#161616;"/>
			</g>
		</g>
	</g>
	<g id="head">
		<path id="XMLID_1833_" d="M555,165.1c-1.6-0.4-5.5-1.2-9.8,0.4c-1,0.4-8.3,3.1-9.3,10.2c-0.9,5.8,3,11,7.2,13.2
			c1.8,0.9,3.5,1.2,4.7,1.3c0.7,2.3,1.5,5.9,2.1,10.2c1,7.4-0.1,7.7,0.8,11.9c2.3,9.8,10.3,15.9,10.6,16.1c3.4,2.5,4.6,2.1,5.9,4.2
			c2.2,3.4,1.3,7.8,0,14.4c-0.7,3.5-1.5,6.3-2.1,8.1c1.2,1.5,4.8,5.5,11,7.2c6.2,1.7,11.4,0.2,13.2-0.4c1.7-6.9,3.4-13.9,5.1-20.8
			c3.7-0.7,9.1-2.3,14.9-5.5c2-1.1,6-3.4,9.8-7.2c2.5-2.5,6-6.9,9.8-18.3c1.8-5.5,5.6-17.1,5.9-33.1c0.2-7.9-0.7-11.8,0.5-20.9
			c0.7-5.9,1.9-10.7,2.7-14c1.2-2.8,1-4.7,0.6-6.1c-2-6.5-13.4-8.3-20.1-9.4c-4.8-0.8-8.6-0.8-13.3-0.8c-7.4,0-11.1,0-14.7,1
			c-8.1,2.3-13.5,7.5-16.8,10.7c-4,3.9-3.2,4.4-8,9c-4.5,4.2-6.9,5.4-8.8,9C555,159.2,554.9,162.7,555,165.1z" style="fill:#FFFFFF;"/>
		<path id="XMLID_1834_" d="M553.2,190.4c0.1,3.3,0,6.9-0.4,10.9c-0.5,5.2-1.5,9.9-2.5,13.8c-1.4,1.7-4.2,4.5-8.5,6.2
			c-9,3.4-17.2-1-18.5-1.8c-0.4-4.2-1.1-10.4-2.6-17.8c-3.3-16.5-7.6-25.6-9.1-31.3c-2.9-10.8-0.9-27.8,21.8-54.8
			c-6.5-0.2-8-1.2-8.3-2.2c-0.8-3.1,11.5-9.2,21.3-12.6c13.1-4.6,23.6-5,23.5-6.5c-0.1-1.6-11.7-1.6-11.8-3
			c-0.1-1.6,13.1-5.4,27.4-4.4c3.4,0.3,20.3,1.8,36.6,14.4c5.3,4.1,14.6,11.5,18.7,23.9c1.3,3.9,4.4,13.3-0.4,19.2
			c-1.3,1.6-2.8,2.5-3.9,3c0.2-2,0.2-5.6-1.7-9.1c-2.6-4.5-7-6.3-11.3-7.8c-2.1-0.8-8.7-3-18.7-2.6c-5.7,0.2-15.9,0.6-25.7,7
			c-0.6,0.4,0.1-0.1-11.3,10.4c-7.8,7.2-11.3,10.3-11.3,14.8c0,2.4,1.1,4.2,0,5.2c-1.5,1.5-4.6-1.2-8.7-0.9
			c-5.1,0.4-11.3,5.3-11.8,11.8c-0.5,7.2,6.7,11.7,7.4,12.2C547.4,190.8,551.6,190.6,553.2,190.4z" style="fill:#1C1C1C;"/>
		<path id="XMLID_1838_" d="M586.4,130.7c-2.4,4-5.5,9.9-8.4,17.2c-4,10-10.4,25.8-9.6,45.9c0.9,20.6,9,36.4,14.5,45.2
			c-2.3,7.9-4.6,15.8-6.9,23.7c-5.9-1.2-8.2-3.4-9.2-5.4c-1.6-3.1-0.1-6.1,0.4-12.6c0.4-5,0-9.1-0.4-11.9c-4.2-3.6-8.7-8.3-13-14.2
			c-1.4-2-2.7-3.9-3.8-5.7c-0.4,1.3-1.3,3.2-3.1,5c-3.1,3.2-7,3.8-9.6,4.2c-6.2,1-11.4-0.7-14.2-1.9c-0.4-4.6-1-9.6-1.9-14.9
			c-1.5-8.5-3.6-16.1-5.7-22.6c1.3,4.7,5.2,8.1,10,8.8c4.9,0.7,9.8-1.7,12.3-6.1c-3.8-5.9-2.6-13.5,2.3-17.6c4-3.4,10-3.8,14.9-1.1
			c0.1-3.1,0.5-5.7,1.1-8C561.3,140.1,582.1,132.2,586.4,130.7z" style="opacity:0.12;fill:#606060;"/>
		<g id="XMLID_1777_">
			<g id="XMLID_1802_">
				<path id="XMLID_1807_" d="M634,146.5c0.2,14.7-0.1,29.5-1.9,44.1c-1.7,13.4-5.6,27.1-15.1,37.1
					c-9.6,10.1-23.8,13.6-37.2,9.7c-12.5-3.6-22.1-13.3-27.7-24.8c-0.8-1.7-3.4-0.2-2.6,1.5c11.6,23.8,42.4,37.7,65.2,19.7
					c11-8.7,16.6-22.1,19.2-35.6c3.2-16.9,3.4-34.5,3.1-51.6C637,144.5,634,144.5,634,146.5L634,146.5z" style="fill:#161616;"/>
			</g>
		</g>
		<g id="XMLID_1778_">
			<g id="XMLID_1810_">
				<path id="XMLID_1815_" d="M610.2,151.2c0.9,7.4,2.1,14.7,3.6,22c0.8,3.5,2.8,8.3,2.3,11.9c-0.5,4.4-5.6,7.1-9.6,8.5
					c-1.8,0.7-1,3.6,0.8,2.9c5-1.8,12.7-6,12.1-12.3c-0.5-4.9-2.4-9.9-3.3-14.7c-1.2-6.1-2.2-12.2-2.9-18.4
					C613,149.3,610,149.3,610.2,151.2L610.2,151.2z" style="fill:#161616;"/>
			</g>
		</g>
		<g id="XMLID_1785_">
			<g id="XMLID_1819_">
				<path id="XMLID_1823_" d="M596.7,159c-0.3,3.3-1.1,6.5-2.3,9.6c-0.7,1.8,2.2,2.6,2.9,0.8c1.3-3.4,2-6.8,2.4-10.4
					C599.9,157.1,596.9,157.1,596.7,159L596.7,159z" style="fill:#161616;"/>
			</g>
		</g>
		<g id="XMLID_1786_">
			<g id="XMLID_1827_">
				<path id="XMLID_1831_" d="M596,158.1c-1.4,3.7-2,7.6-2,11.5c0,1.9,3,1.9,3,0c0-3.7,0.6-7.2,1.9-10.7
					C599.6,157,596.7,156.3,596,158.1L596,158.1z" style="fill:#161616;"/>
			</g>
		</g>
		<g id="XMLID_1795_">
			<g id="XMLID_1851_">
				<path id="XMLID_1856_" d="M587.2,149.8c4.3-4,10.9-4.1,15.2-0.1c1.4,1.3,3.5-0.8,2.1-2.1c-5.5-5.1-14-5.1-19.5,0.1
					C583.7,149,585.8,151.1,587.2,149.8L587.2,149.8z" style="fill:#161616;"/>
			</g>
		</g>
		<g id="XMLID_1798_">
			<g id="XMLID_1859_">
				<path id="XMLID_1864_" d="M619.6,149.4c3.4-2.6,8.5-1.1,10.4,2.6c0.9,1.7,3.5,0.2,2.6-1.5
					c-2.8-5.6-10.3-6.9-15.1-3.2C615.9,148.4,618.1,150.5,619.6,149.4L619.6,149.4z" style="fill:#161616;"/>
			</g>
		</g>
		<g id="XMLID_1800_">
			<g id="XMLID_1873_">
				<path id="XMLID_1877_" d="M612.9,206.5c-7.1,4.2-15.9,1.5-19.1-6.3c-0.7-1.8-3.6-1-2.9,0.8
					c3.9,9.5,14.5,13.3,23.5,8C616.1,208.1,614.5,205.5,612.9,206.5L612.9,206.5z" style="fill:#161616;"/>
			</g>
		</g>
		<g id="XMLID_1808_">
			<g id="XMLID_1881_">
				<path id="XMLID_1885_" d="M556.4,166c-7-9.1-20.4,0.2-22.2,9c-2.3,11.2,9.1,20.3,19.4,14.9c1.7-0.9,0.2-3.5-1.5-2.6
					c-8.6,4.5-17.2-4-14.6-12.9c1.8-6.3,11.6-13,16.8-6.3C555.5,169.6,557.6,167.5,556.4,166L556.4,166z" style="fill:#161616;"/>
			</g>
		</g>
		<g id="XMLID_1794_">
			<g id="XMLID_1857_">
				<path id="XMLID_1880_" d="M626.1,161.5c-0.3,3.3-1.1,6.5-2.3,9.6c-0.7,1.8,2.2,2.6,2.9,0.8c1.3-3.4,2-6.8,2.4-10.4
					C629.3,159.6,626.3,159.6,626.1,161.5L626.1,161.5z" style="fill:#161616;"/>
			</g>
		</g>
		<g id="XMLID_1793_">
			<g id="XMLID_1843_">
				<path id="XMLID_1848_" d="M625.4,160.5c-1.4,3.7-2,7.6-2,11.5c0,1.9,3,1.9,3,0c0-3.7,0.6-7.2,1.9-10.7
					C628.9,159.5,626,158.7,625.4,160.5L625.4,160.5z" style="fill:#161616;"/>
			</g>
		</g>
		<g id="XMLID_1816_">
			<g id="XMLID_1889_">
				<path id="XMLID_1894_" d="M595.8,239.3c-2.5,5.3-4.3,10.9-5.3,16.7c-0.3,1.9,2.6,2.7,2.9,0.8c0.9-5.6,2.6-10.9,5-16
					C599.2,239.1,596.6,237.6,595.8,239.3L595.8,239.3z" style="fill:#161616;"/>
			</g>
		</g>
		<g id="XMLID_1817_">
			<g id="XMLID_1897_">
				<path id="XMLID_1902_" d="M567,234.9c0,4.1-0.3,8.2-1.2,12.2c-0.5,2.3-1.9,4.9-1.4,7.3c0.8,3.9,5.5,7.1,8.9,8.5
					c6.3,2.7,19.2,2.4,20.1-6.5c0.2-1.9-2.8-1.9-3,0c-0.4,4-6.7,5.1-9.8,5c-3.8-0.1-7.7-1.5-10.5-4.1c-3.9-3.6-1.6-7.8-0.8-12.2
					c0.6-3.4,0.8-6.8,0.8-10.3C569.9,232.9,566.9,232.9,567,234.9L567,234.9z" style="fill:#161616;"/>
			</g>
		</g>
		<g id="XMLID_1824_">
			<g id="XMLID_1905_">
				<path id="XMLID_1910_" d="M574.7,238.5c5.9,3.6,12.3,6.2,18.9,8c1.9,0.5,2.7-2.4,0.8-2.9
					c-6.5-1.7-12.5-4.3-18.2-7.7C574.6,234.9,573.1,237.5,574.7,238.5L574.7,238.5z" style="fill:#161616;"/>
			</g>
		</g>
		<g id="XMLID_1826_">
			<g id="XMLID_1913_">
				<path id="XMLID_1918_" d="M587.6,242.8c2.3,0.8,4.6,1.3,7,1.6c1.9,0.3,2.7-2.6,0.8-2.9c-2.4-0.3-4.7-0.9-7-1.6
					C586.5,239.3,585.7,242.2,587.6,242.8L587.6,242.8z" style="fill:#161616;"/>
			</g>
		</g>
	</g>
	<g id="girl_hand">
		<path id="XMLID_2216_" d="M738.6,449.2c-2.2,1-2.2,4.4-2.3,8.7c-0.1,3.9-0.2,7.8,2.3,9.3c1.7,1,3.9,0.4,5,0
			c0.1,0.5,0.4,3.2,2.9,5c3.2,2.2,6.8,0.7,7,0.6c0.6,1.1,2.1,3.2,4.7,4.7c0.7,0.4,5,2.9,9.6,1.2c3-1.1,6.3-4,5.8-6.1
			c-0.6-2.4-5.5-1.1-8.4-4.7c-2.9-3.5-0.7-7.8-3.5-9.9c-1.8-1.3-4.3-0.9-6.4-0.3c0-3.4-2.2-6.1-4.7-6.4c-2.1-0.3-3.7,1.1-4.1,1.5
			C743.9,449.8,740.7,448.3,738.6,449.2z" style="fill:#FFFFFF;"/>
		<g id="XMLID_2142_">
			<g id="XMLID_2210_">
				<path id="XMLID_2214_" d="M740.5,465.4c-3.7,1.2-3.4-12.4-2-14c1.7-0.1,3.3-0.2,5-0.3c0.5,0.9,0.7,1.8,0.7,2.8
					c0.1,1.1,0.1,2.3,0,3.4c-0.1,1.5-0.1,3-0.2,4.5c0,0.5-0.1,1-0.1,1.5c0.1,1.3-0.5,2.3-2,2.9c-0.5-1.9-3.4-1.1-2.9,0.8
					c0.5,1.8,2.1,2.9,4,2.6c2.2-0.3,3.3-2.2,3.7-4.3c0.8-3.6,0.8-8.1,0.5-11.8c-0.2-2.7-1.4-5.5-3.9-6.8c-6.2-3.1-7.9,4.1-8.4,8.6
					c-0.5,3.8-0.2,15,6.4,12.8C743.1,467.7,742.3,464.8,740.5,465.4L740.5,465.4z" style="fill:#161616;"/>
			</g>
		</g>
		<g id="XMLID_2150_">
			<g id="XMLID_2218_">
				<path id="XMLID_2223_" d="M748.1,471.7c-1.2-3.9-1.9-7.9-1.9-12c0-1.3-0.3-3.6,0.5-4.8c3.4-2.3,5.5-1.7,6.1,1.7
					c0.3,1.2,0.4,2.4,0.5,3.6c0.2,1.9,3.2,1.9,3,0c-0.3-3.3-0.8-6.9-3.6-9.1c-2-1.5-4.9-1.9-6.9-0.2c-5.4,4.4-2.3,16.2-0.7,21.6
					C745.8,474.4,748.7,473.6,748.1,471.7L748.1,471.7z" style="fill:#161616;"/>
			</g>
		</g>
		<g id="XMLID_2158_">
			<g id="XMLID_2226_">
				<path id="XMLID_2231_" d="M744.7,472.7c2.8,2.4,6,3.2,9.6,2.2c0.8-0.2,1.3-1.1,1-1.8c-0.6-2.1-0.9-4.3-0.8-6.5
					c0.1-1.5,0.5-5.9,1.8-7c3.4-2.8,7,7.2,8,9.1c0.9,1.7,3.5,0.2,2.6-1.5c-1.7-3.3-5.4-14-11.2-11.1c-5.4,2.7-4.6,13.1-3.4,17.8
					c0.3-0.6,0.7-1.2,1-1.8c-2.5,0.7-4.7,0.3-6.7-1.4C745.3,469.3,743.2,471.4,744.7,472.7L744.7,472.7z" style="fill:#161616;"/>
			</g>
		</g>
		<g id="XMLID_2167_">
			<g id="XMLID_2234_">
				<path id="XMLID_2239_" d="M763.8,478.5c-1.5-0.5-3.2-0.9-4.4-2c-2.5-2.2-0.6-5.2,2.2-6.1c3.7-1.2,7.8,0,10.6,2.6
					c1.4,1.3,3.5-0.8,2.1-2.1c-4.5-4.2-12.8-5.9-17.5-1c-5.2,5.4,1.3,10.1,6.2,11.6C764.8,481.9,765.6,479,763.8,478.5L763.8,478.5z
					" style="fill:#161616;"/>
			</g>
		</g>
		<g id="XMLID_2175_">
			<g id="XMLID_2242_">
				<path id="XMLID_2247_" d="M760.6,479.3c4.4,4,10.6,1.5,13.8-2.8c4.4-6-4.7-9.8-9.1-11.6c-1.8-0.7-3.3,1.8-1.5,2.6
					c2,0.9,9.8,3.7,8.5,6.9c-1.3,3.3-6.8,5.3-9.5,2.9C761.3,475.8,759.2,477.9,760.6,479.3L760.6,479.3z" style="fill:#161616;"/>
			</g>
		</g>
	</g>
</g>
</svg>